<svg width="24" height="23" viewBox="0 0 24 23" fill="none" xmlns="http://www.w3.org/2000/svg">
<g clip-path="url(#clip0_107_11)">
<path d="M0.482945 10.307C-0.159354 10.859 -0.159354 11.7555 0.482945 12.3075L8.70437 19.3731C9.34667 19.9251 10.3898 19.9251 11.0321 19.3731C11.6744 18.8211 11.6744 17.9247 11.0321 17.3727L5.61106 12.7182H21.3757C22.2851 12.7182 23.0199 12.0867 23.0199 11.3051C23.0199 10.5234 22.2851 9.89193 21.3757 9.89193H5.6162L11.0269 5.23745C11.6692 4.68545 11.6692 3.789 11.0269 3.237C10.3846 2.685 9.34154 2.685 8.69924 3.237L0.477807 10.3026L0.482945 10.307Z" fill="white"/>
</g>
<defs>
<clipPath id="clip0_107_11">
<rect width="23.02" height="22.61" fill="white"/>
</clipPath>
</defs>
</svg>
