<svg xmlns="http://www.w3.org/2000/svg" xmlns:xlink="http://www.w3.org/1999/xlink" width="211.477" height="124.26" viewBox="0 0 211.477 124.26">
  <defs>
    <linearGradient id="linear-gradient" x1="0.5" x2="0.5" y2="1" gradientUnits="objectBoundingBox">
      <stop offset="0" stop-color="#219ebc"/>
      <stop offset="1" stop-color="#6ad7ec"/>
    </linearGradient>
  </defs>
  <path id="boleto" d="M98.244,363.026h14.99a2.485,2.485,0,0,1,2.478,2.478v97.252a2.485,2.485,0,0,1-2.478,2.478H98.244a2.485,2.485,0,0,1-2.478-2.478V365.5A2.485,2.485,0,0,1,98.244,363.026Zm108.278,93.288a2.478,2.478,0,1,1,4.956,0v17.468A2.485,2.485,0,0,1,209,476.26H191.531a2.478,2.478,0,1,1,0-4.956h14.99Zm4.956-84.492a2.478,2.478,0,1,1-4.956,0V356.955h-14.99a2.478,2.478,0,1,1,0-4.955H209a2.485,2.485,0,0,1,2.478,2.478ZM0,456.314a2.478,2.478,0,1,1,4.956,0V471.3h14.99a2.478,2.478,0,1,1,0,4.956H2.478A2.485,2.485,0,0,1,0,473.782Zm4.956-84.492a2.478,2.478,0,1,1-4.956,0V354.478A2.485,2.485,0,0,1,2.478,352H19.946a2.478,2.478,0,1,1,0,4.955H4.956Zm177.9-8.8h14.99a2.485,2.485,0,0,1,2.478,2.478v97.252a2.485,2.485,0,0,1-2.478,2.478h-14.99a2.485,2.485,0,0,1-2.478-2.478V365.5A2.485,2.485,0,0,1,182.859,363.026Zm-55.5,99.73a2.478,2.478,0,1,1-4.956,0V365.5a2.478,2.478,0,1,1,4.956,0Zm11.893,0a2.478,2.478,0,1,1-4.956,0V365.5a2.478,2.478,0,1,1,4.956,0Zm12.017,0a2.478,2.478,0,1,1-4.956,0V365.5a2.478,2.478,0,1,1,4.956,0Zm12.017,0a2.478,2.478,0,1,1-4.956,0V365.5a2.478,2.478,0,1,1,4.956,0Zm12.017,0a2.478,2.478,0,1,1-4.956,0V365.5a2.478,2.478,0,1,1,4.956,0ZM13.5,363.026h14.99a2.485,2.485,0,0,1,2.478,2.478v97.252a2.485,2.485,0,0,1-2.478,2.478H13.5a2.485,2.485,0,0,1-2.478-2.478V365.5A2.485,2.485,0,0,1,13.5,363.026Zm75.572,99.73a2.478,2.478,0,1,1-4.956,0V365.5a2.478,2.478,0,1,1,4.956,0Zm-12.017,0a2.478,2.478,0,1,1-4.956,0V365.5a2.478,2.478,0,1,1,4.956,0Zm-11.893,0a2.485,2.485,0,0,1-2.478,2.478,2.409,2.409,0,0,1-2.478-2.478V365.5a2.409,2.409,0,0,1,2.478-2.478,2.485,2.485,0,0,1,2.478,2.478Zm-12.017,0a2.478,2.478,0,1,1-4.956,0V365.5a2.478,2.478,0,1,1,4.956,0Zm-12.017,0a2.478,2.478,0,1,1-4.956,0V365.5a2.478,2.478,0,1,1,4.956,0Z" transform="translate(0 -352)" fill="url(#linear-gradient)"/>
</svg>
