<?xml version="1.0" standalone="no"?>
<!DOCTYPE svg PUBLIC "-//W3C//DTD SVG 20010904//EN"
 "http://www.w3.org/TR/2001/REC-SVG-20010904/DTD/svg10.dtd">
<svg version="1.0" xmlns="http://www.w3.org/2000/svg"
 width="107.000000pt" height="75.000000pt" viewBox="0 0 107.000000 75.000000"
 preserveAspectRatio="xMidYMid meet">

<g transform="translate(0.000000,75.000000) scale(0.100000,-0.100000)" stroke="none">
<path d="M178 723 c-15 -16 -43 -71 -64 -123 -28 -74 -45 -103 -75 -128 l-39
-34 0 -138 c0 -150 0 -150 61 -150 24 0 31 -6 44 -37 31 -74 86 -113 160 -113
74 0 129 39 160 113 l15 37 94 0 93 0 6 -29 c7 -35 50 -87 88 -106 36 -19 112
-19 147 -1 37 20 68 55 87 99 13 31 20 37 46 37 63 0 69 11 69 115 0 101 -9
136 -43 174 -27 29 -93 60 -127 61 -19 0 -40 19 -90 83 -36 45 -82 101 -104
125 l-39 42 -231 0 -232 0 -26 -27z m192 -158 l0 -65 -79 0 -79 0 26 65 25 65
54 0 53 0 0 -65z m277 18 c75 -92 80 -83 -51 -83 l-116 0 0 65 0 65 64 0 64 0
39 -47z m-333 -369 c38 -37 4 -114 -49 -114 -54 0 -85 71 -48 112 20 22 76 24
97 2z m530 0 c9 -8 16 -31 16 -49 0 -58 -69 -86 -110 -45 -24 24 -26 67 -3 92
20 22 76 24 97 2z"/>
</g>
</svg>
