<svg width="31" height="31" viewBox="0 0 31 31" fill="none" xmlns="http://www.w3.org/2000/svg">
<g clip-path="url(#clip0_106_13)" filter="url(#filter0_d_106_13)">
<path d="M12.2149 8.21489L12.2168 8.21299C12.4378 7.98956 12.8026 7.98683 13.0306 8.21488L15.142 10.3262L15.4955 10.6798L15.8491 10.3262L17.9604 8.21489L17.9623 8.21299C18.181 7.99195 18.5471 7.98829 18.778 8.21677C19.0015 8.43782 19.0042 8.80257 18.7761 9.03063L16.6648 11.142L16.3113 11.4955L16.6648 11.8491L18.7761 13.9604L18.778 13.9623C18.9991 14.181 19.0027 14.5471 18.7742 14.778C18.5532 15.0015 18.1884 15.0042 17.9604 14.7761L15.8491 12.6648L15.4955 12.3113L15.142 12.6648L13.0306 14.7761L13.0306 14.7761L13.0287 14.778C12.8101 14.9991 12.4439 15.0027 12.213 14.7742C11.9896 14.5532 11.9868 14.1884 12.2149 13.9604L14.3262 11.8491L14.6798 11.4955L14.3262 11.142L12.2149 9.03063L12.2149 9.03062L12.213 9.02874C11.9896 8.80769 11.9868 8.44294 12.2149 8.21489ZM22.4606 4.53942C20.6145 2.69336 18.1107 1.65625 15.5 1.65625C12.8893 1.65625 10.3855 2.69336 8.53942 4.53942C6.69336 6.38548 5.65625 8.88928 5.65625 11.5C5.65625 14.1107 6.69336 16.6145 8.53942 18.4606C10.3855 20.3066 12.8893 21.3438 15.5 21.3438C18.1107 21.3438 20.6145 20.3066 22.4606 18.4606C24.3066 16.6145 25.3438 14.1107 25.3438 11.5C25.3438 8.88928 24.3066 6.38548 22.4606 4.53942ZM23.2782 19.2782C21.2153 21.3411 18.4174 22.5 15.5 22.5C12.5826 22.5 9.78473 21.3411 7.72183 19.2782C5.65893 17.2153 4.5 14.4174 4.5 11.5C4.5 8.58262 5.65893 5.78473 7.72183 3.72183C9.78473 1.65893 12.5826 0.5 15.5 0.5C18.4174 0.5 21.2153 1.65893 23.2782 3.72183C25.3411 5.78473 26.5 8.58262 26.5 11.5C26.5 14.4174 25.3411 17.2153 23.2782 19.2782Z" fill="#F6851F" stroke="#F6851F"/>
</g>
<defs>
<filter id="filter0_d_106_13" x="0" y="0" width="31" height="31" filterUnits="userSpaceOnUse" color-interpolation-filters="sRGB">
<feFlood flood-opacity="0" result="BackgroundImageFix"/>
<feColorMatrix in="SourceAlpha" type="matrix" values="0 0 0 0 0 0 0 0 0 0 0 0 0 0 0 0 0 0 127 0" result="hardAlpha"/>
<feOffset dy="4"/>
<feGaussianBlur stdDeviation="2"/>
<feComposite in2="hardAlpha" operator="out"/>
<feColorMatrix type="matrix" values="0 0 0 0 0 0 0 0 0 0 0 0 0 0 0 0 0 0 0.25 0"/>
<feBlend mode="normal" in2="BackgroundImageFix" result="effect1_dropShadow_106_13"/>
<feBlend mode="normal" in="SourceGraphic" in2="effect1_dropShadow_106_13" result="shape"/>
</filter>
<clipPath id="clip0_106_13">
<rect width="23" height="23" fill="white" transform="translate(4)"/>
</clipPath>
</defs>
</svg>
