<?xml version="1.0" standalone="no"?>
<!DOCTYPE svg PUBLIC "-//W3C//DTD SVG 20010904//EN"
 "http://www.w3.org/TR/2001/REC-SVG-20010904/DTD/svg10.dtd">
<svg version="1.0" xmlns="http://www.w3.org/2000/svg"
 width="120.000000pt" height="100.000000pt" viewBox="0 0 120.000000 100.000000"
 preserveAspectRatio="xMidYMid meet">

<g transform="translate(0.000000,100.000000) scale(0.100000,-0.100000)"
fill="#000000" stroke="none">
<path d="M970 952 c0 -11 -13 -24 -32 -33 -39 -17 -78 -72 -78 -109 0 -35 35
-79 77 -96 30 -13 33 -18 33 -54 0 -42 -14 -54 -23 -19 -5 17 -12 20 -44 17
-31 -2 -39 -7 -41 -26 -4 -29 48 -82 81 -82 16 0 26 -7 30 -20 3 -11 13 -20
22 -20 9 0 19 9 22 20 3 11 14 20 25 20 54 0 118 66 118 123 0 40 -46 83 -98
92 -41 7 -42 8 -42 46 0 44 8 48 35 19 22 -25 83 -28 92 -4 8 21 -53 82 -92
92 -20 6 -31 15 -33 30 -4 28 -52 32 -52 4z m0 -133 c0 -27 -2 -30 -15 -19
-11 9 -12 17 -4 31 14 27 19 24 19 -12z m88 -168 c-2 -15 -10 -27 -20 -29 -14
-3 -18 4 -18 31 0 31 3 34 21 30 15 -4 19 -12 17 -32z"/>
<path d="M321 597 c-14 -6 -45 -41 -70 -76 l-46 -64 -82 -22 c-120 -31 -123
-36 -123 -163 l0 -104 34 -34 c30 -30 40 -34 85 -34 46 0 52 -3 66 -30 21 -40
71 -70 117 -70 30 0 47 8 78 36 22 20 40 43 40 50 0 11 30 14 159 14 l159 0
20 -32 c55 -89 168 -90 222 -3 21 34 23 35 84 35 70 0 79 6 115 77 15 31 21
61 21 113 0 65 -3 74 -27 99 -24 23 -45 29 -143 45 -107 17 -165 40 -165 66 0
5 -23 31 -51 59 l-52 51 -208 0 c-146 0 -216 -4 -233 -13z m404 -105 c21 -14
76 -111 70 -122 -4 -6 -91 -10 -246 -10 -268 0 -256 -4 -218 73 36 70 25 67
213 67 94 0 176 -4 181 -8z m-384 -310 c45 -38 16 -122 -43 -122 -25 0 -68 44
-68 70 0 26 43 70 68 70 11 0 30 -8 43 -18z m574 -7 c14 -13 25 -33 25 -45 0
-27 -43 -70 -70 -70 -27 0 -70 43 -70 70 0 27 43 70 70 70 12 0 32 -11 45 -25z"/>
</g>
</svg>
