<?xml version="1.0" standalone="no"?>
<!DOCTYPE svg PUBLIC "-//W3C//DTD SVG 20010904//EN"
 "http://www.w3.org/TR/2001/REC-SVG-20010904/DTD/svg10.dtd">
<svg version="1.0" xmlns="http://www.w3.org/2000/svg"
 width="120.000000pt" height="100.000000pt" viewBox="0 0 120.000000 100.000000"
 preserveAspectRatio="xMidYMid meet">

<g transform="translate(0.000000,100.000000) scale(0.100000,-0.100000)" stroke="none">
<path d="M782 975 c-33 -28 -57 -84 -48 -113 4 -12 -2 -26 -18 -41 -49 -46
-40 -113 20 -160 54 -43 98 -20 93 48 -3 31 2 46 20 65 19 21 23 33 18 65 -3
22 -3 42 0 45 3 3 18 -4 33 -16 19 -14 38 -19 59 -16 21 3 31 0 31 -8 0 -17
49 -54 71 -54 26 0 24 -15 -6 -34 -18 -12 -25 -25 -25 -47 0 -69 42 -88 107
-48 43 27 63 66 63 125 0 41 -4 50 -37 80 -21 19 -54 49 -73 68 -44 43 -71 56
-112 56 -18 0 -63 3 -99 6 -60 5 -68 3 -97 -21z"/>
<path d="M345 613 c-37 -10 -64 -35 -102 -93 -38 -59 -39 -60 -111 -77 -40 -9
-86 -25 -103 -35 l-29 -18 0 -118 c0 -110 2 -120 22 -140 29 -27 70 -42 114
-42 19 0 34 -4 34 -10 0 -5 16 -25 37 -45 32 -31 42 -35 91 -35 53 0 58 2 99
45 l43 45 145 0 145 0 43 -45 c41 -42 47 -45 97 -45 50 0 56 3 97 45 40 42 46
45 93 45 67 0 85 11 115 71 23 44 25 60 23 136 -3 79 -5 87 -29 105 -16 12
-64 25 -127 36 -56 9 -102 20 -102 24 0 5 10 24 22 43 23 34 24 35 94 35 57 0
74 4 88 19 17 18 17 20 -3 40 -17 17 -33 21 -92 21 -39 0 -78 -4 -88 -10 -10
-5 -33 -32 -51 -60 -18 -27 -35 -50 -39 -50 -3 1 -18 18 -33 40 -50 73 -58 75
-278 77 -107 1 -204 -1 -215 -4z m414 -174 c17 -28 31 -55 31 -60 0 -5 -98 -9
-240 -9 -132 0 -240 2 -240 5 0 8 41 88 52 103 8 9 58 12 188 12 l177 0 32
-51z m-417 -266 c39 -35 11 -103 -43 -103 -36 0 -59 24 -59 60 0 54 61 80 102
43z m572 1 c20 -20 20 -68 0 -88 -20 -20 -68 -20 -88 0 -21 20 -20 63 1 86 20
22 66 24 87 2z"/>
</g>
</svg>
