<svg xmlns="http://www.w3.org/2000/svg" width="80.091" height="74.371" viewBox="0 0 80.091 74.371">
  <g id="Icon_ionic-ios-create" data-name="Icon ionic-ios-create" opacity="0.55">
    <g id="Grupo_142" data-name="Grupo 142" transform="translate(30.027 0)">
      <path id="Caminho_81" data-name="Caminho 81" d="M50.578,6.3l-36.1,36.1a1.406,1.406,0,0,0-.411,1v4.736a1.415,1.415,0,0,0,1.412,1.412h4.7a1.447,1.447,0,0,0,1.019-.411l36.122-36.1a1.413,1.413,0,0,0,0-2L52.58,6.3A1.413,1.413,0,0,0,50.578,6.3Z" transform="translate(-14.063 0.493)" fill="#8559a5"/>
      <path id="Caminho_82" data-name="Caminho 82" d="M38.875,6.771,36.3,4.2l-.036-.036a3.16,3.16,0,0,0-2.055-.786,3.1,3.1,0,0,0-2.073.8l-2.02,2.038a.723.723,0,0,0,0,1l1.859,1.859,3.879,3.879a.712.712,0,0,0,1.019,0l2.02-2.02a3.048,3.048,0,0,0,.786-2.073A3.234,3.234,0,0,0,38.875,6.771Z" transform="translate(10.384 -3.375)" fill="#8559a5"/>
    </g>
    <path id="Caminho_83" data-name="Caminho 83" d="M41.214,47.824a2.87,2.87,0,0,1-2.02.84h-7.4a2.868,2.868,0,0,1-2.86-2.86V38.387a2.87,2.87,0,0,1,.84-2.02l.143-.143L56.3,9.843a.714.714,0,0,0-.5-1.215H12.742A10.5,10.5,0,0,0,2.25,19.119V59.156A10.5,10.5,0,0,0,12.742,69.647H58.5A10.5,10.5,0,0,0,68.99,59.156V21.8a.71.71,0,0,0-1.215-.5L41.357,47.681Z" transform="translate(-2.25 4.724)" fill="#8559a5"/>
  </g>
</svg>
