<svg xmlns="http://www.w3.org/2000/svg" width="82.313" height="85.776" viewBox="0 0 82.313 85.776">
  <path id="Icon_map-car-dealer" data-name="Icon map-car-dealer" d="M80.977,20.386c-1.18-.93-4.345-1.676-6.715-2.232l-3.206-.429V9.974L72.7,9.948c1.539.781,3.755,2.06,3.87,3.776h6.183c-.115-3.431-2.721-5.6-5.04-7.315-1.539-1.141-3.223-1.75-6.655-2.119V0H67.625V4.158c-3.431.329-4.539,1.184-6.088,2.578A8.752,8.752,0,0,0,58.609,13.6c0,3.019.863,5.237,2.937,6.658,1.16.8,2.649,1.553,6.08,2.246v8.4c-1.716-.3-1.719-.226-2.325-.945-.583-.7-.743-2.512-.942-2.512H58.224c0,3.431.928,5.075,3.251,6.9,1.674,1.319,2.719,1.553,6.15,1.9v3.2h3.431v-3.15c3.431-.331,6.346-1.2,8.022-2.635,2.175-1.858,3.954-4.193,3.954-7,0-2.741-.221-4.834-2.055-6.284ZM65.941,15.606a2.547,2.547,0,0,1-1.383-2.467,3.036,3.036,0,0,1,1.343-2.8c.534-.352.009-.607,1.724-.777v6.759C65.91,16.057,66.318,15.821,65.941,15.606Zm7.451,15.131c-.288.1-2.335.178-2.335.249V23.837c3.431.3,3.167.612,3.736.957a2.641,2.641,0,0,1,1.343,2.362,3.594,3.594,0,0,1-2.745,3.58Zm-8.3,20.729h-.949L53.6,32.38a3.212,3.212,0,0,0-2.544-1.5H19.074a3.212,3.212,0,0,0-2.544,1.5L5.99,51.466H5.043C3.154,51.466.72,53.01.72,54.9V72.052c0,1.887,2.434,3.431,4.323,3.431H7.582V80.63c0,2.831,3.208,5.147,6.039,5.147h1.716c2.831,0,4.254-2.316,4.254-5.147V75.483H48.755V80.63c0,2.831,3.206,5.147,6.039,5.147h1.716c2.831,0,4.255-2.316,4.255-5.147V75.483h4.323c1.887,0,2.539-1.544,2.539-3.431V54.9c0-1.887-.654-3.431-2.539-3.431ZM11.047,65.19A4.289,4.289,0,1,1,15.336,60.9,4.289,4.289,0,0,1,11.047,65.19Zm3.431-13.724,6.953-13.9a3.042,3.042,0,0,1,2.482-1.535h22.3A3.044,3.044,0,0,1,48.7,37.561l6.953,13.9H14.478Zm44.6,13.724A4.289,4.289,0,1,1,63.371,60.9,4.289,4.289,0,0,1,59.082,65.19Z" transform="translate(-0.72)" fill="#f5f5f5"/>
</svg>
