<svg xmlns="http://www.w3.org/2000/svg" width="70.109" height="70.109" viewBox="0 0 70.109 70.109">
  <path id="Icon_awesome-satellite-dish" data-name="Icon awesome-satellite-dish" d="M25.857,47.373l3.752-3.752a4.006,4.006,0,0,0,1.068.219,4.382,4.382,0,1,0-4.382-4.382,4.006,4.006,0,0,0,.219,1.068l-3.752,3.752-16-16a2.172,2.172,0,0,0-3.424.411A28.116,28.116,0,0,0,41.414,66.766a2.157,2.157,0,0,0,.411-3.424ZM28.623,0a2.2,2.2,0,0,0-2.328,2.191V6.521A2.169,2.169,0,0,0,28.349,8.7,35.174,35.174,0,0,1,61.341,41.772a2.188,2.188,0,0,0,2.178,2.054h4.4A2.2,2.2,0,0,0,70.106,41.5,43.93,43.93,0,0,0,28.623,0Zm.041,13.147a2.21,2.21,0,0,0-2.369,2.2v4.4a2.184,2.184,0,0,0,2.027,2.178A21.874,21.874,0,0,1,48.166,41.813a2.2,2.2,0,0,0,2.178,2.013h4.41a2.218,2.218,0,0,0,2.2-2.369A30.814,30.814,0,0,0,28.664,13.149Z" transform="translate(0 0.002)" fill="#8559a5" opacity="0.55"/>
</svg>
