<svg xmlns="http://www.w3.org/2000/svg" width="29" height="29" viewBox="0 0 29 29">
  <path id="Icon_awesome-print" data-name="Icon awesome-print" d="M25.375,10.875v-6.5a1.814,1.814,0,0,0-.531-1.282L22.281.531A1.813,1.813,0,0,0,21,0H5.438A1.813,1.813,0,0,0,3.625,1.813v9.063A3.625,3.625,0,0,0,0,14.5v6.344a.906.906,0,0,0,.906.906H3.625v5.438A1.813,1.813,0,0,0,5.438,29H23.563a1.813,1.813,0,0,0,1.813-1.812V21.75h2.719A.906.906,0,0,0,29,20.844V14.5A3.625,3.625,0,0,0,25.375,10.875Zm-3.625,14.5H7.25V19.938h14.5Zm0-12.688H7.25V3.625H18.125V6.344a.906.906,0,0,0,.906.906H21.75Zm2.719,4.078a1.359,1.359,0,1,1,1.359-1.359A1.36,1.36,0,0,1,24.469,16.766Z" fill="#fff"/>
</svg>
