<svg xmlns="http://www.w3.org/2000/svg" width="23.078" height="26.374" viewBox="0 0 23.078 26.374">
  <path id="Icon_awesome-copy" data-name="Icon awesome-copy" d="M16.484,23.078v2.061a1.236,1.236,0,0,1-1.236,1.236H1.236A1.236,1.236,0,0,1,0,25.138V6.182A1.236,1.236,0,0,1,1.236,4.945H4.945V20.193A2.888,2.888,0,0,0,7.83,23.078Zm0-17.72V0H7.83A1.236,1.236,0,0,0,6.594,1.236V20.193A1.236,1.236,0,0,0,7.83,21.429H21.841a1.236,1.236,0,0,0,1.236-1.236V6.594H17.72A1.24,1.24,0,0,1,16.484,5.357Zm6.232-1.6-3.4-3.4A1.236,1.236,0,0,0,18.445,0h-.312V4.945h4.945V4.633a1.236,1.236,0,0,0-.362-.874Z" fill="#fdfdfd"/>
</svg>
