<svg xmlns="http://www.w3.org/2000/svg" width="85.631" height="64.223" viewBox="0 0 85.631 64.223">
  <path id="Icon_awesome-car" data-name="Icon awesome-car" d="M83.622,23.232H73.609l-2.783-6.958A18.637,18.637,0,0,0,53.435,4.5H32.195A18.642,18.642,0,0,0,14.8,16.274L12.02,23.232H2.008A2.006,2.006,0,0,0,.062,25.725l1,4.014a2.006,2.006,0,0,0,1.947,1.52H6.368a10.629,10.629,0,0,0-3.693,8.028v8.028a10.617,10.617,0,0,0,2.676,7.013v9.043A5.353,5.353,0,0,0,10.7,68.723h5.352a5.353,5.353,0,0,0,5.352-5.352V58.019H64.223v5.352a5.353,5.353,0,0,0,5.352,5.352h5.352a5.353,5.353,0,0,0,5.352-5.352V54.328a10.61,10.61,0,0,0,2.676-7.013V39.288a10.633,10.633,0,0,0-3.691-8.028H82.62a2.006,2.006,0,0,0,1.947-1.52l1-4.014a2.008,2.008,0,0,0-1.948-2.494ZM24.741,20.25A8.029,8.029,0,0,1,32.195,15.2h21.24A8.029,8.029,0,0,1,60.89,20.25l3.333,8.334H21.407l3.333-8.334ZM16.055,47.282A5.048,5.048,0,0,1,10.7,41.947a5.048,5.048,0,0,1,5.352-5.335c3.211,0,8.028,4.8,8.028,8S19.267,47.282,16.055,47.282Zm53.519,0c-3.211,0-8.028.534-8.028-2.668s4.817-8,8.028-8a5.048,5.048,0,0,1,5.352,5.335,5.048,5.048,0,0,1-5.352,5.335Z" transform="translate(0 -4.5)" fill="#8559a5" opacity="0.55"/>
</svg>
