<svg xmlns="http://www.w3.org/2000/svg" width="54.74" height="54.74" viewBox="0 0 54.74 54.74">
  <path id="Icon_awesome-info-circle" data-name="Icon awesome-info-circle" d="M27.933.563A27.37,27.37,0,1,0,55.3,27.933,27.374,27.374,0,0,0,27.933.563Zm0,12.14A4.635,4.635,0,1,1,23.3,17.338,4.635,4.635,0,0,1,27.933,12.7Zm6.18,28.032a1.324,1.324,0,0,1-1.324,1.324H23.077a1.324,1.324,0,0,1-1.324-1.324V38.086a1.324,1.324,0,0,1,1.324-1.324H24.4V29.7H23.077a1.324,1.324,0,0,1-1.324-1.324V25.725A1.324,1.324,0,0,1,23.077,24.4H30.14a1.324,1.324,0,0,1,1.324,1.324V36.762h1.324a1.324,1.324,0,0,1,1.324,1.324Z" transform="translate(-0.563 -0.563)" fill="#fff"/>
</svg>
