<svg xmlns="http://www.w3.org/2000/svg" width="38.477" height="30.781" viewBox="0 0 38.477 30.781">
  <path id="Icon_awesome-crown" data-name="Icon awesome-crown" d="M31.743,26.934H6.733a.965.965,0,0,0-.962.962V29.82a.965.965,0,0,0,.962.962h25.01a.965.965,0,0,0,.962-.962V27.9A.965.965,0,0,0,31.743,26.934ZM35.591,7.7a2.887,2.887,0,0,0-2.886,2.886,2.827,2.827,0,0,0,.265,1.19l-4.353,2.609a1.921,1.921,0,0,1-2.657-.7L21.06,5.11a2.886,2.886,0,1,0-3.643,0l-4.9,8.573a1.923,1.923,0,0,1-2.657.7L5.513,11.772a2.885,2.885,0,1,0-2.627,1.7,2.947,2.947,0,0,0,.463-.048L7.7,25.01H30.781l4.347-11.591a2.947,2.947,0,0,0,.463.048,2.886,2.886,0,0,0,0-5.772Z" fill="#fff"/>
</svg>
