<svg width="27" height="18" viewBox="0 0 27 18" fill="none" xmlns="http://www.w3.org/2000/svg">
<path d="M0 1.5C0 0.670312 0.86183 0 1.92857 0H25.0714C26.1382 0 27 0.670312 27 1.5C27 2.32969 26.1382 3 25.0714 3H1.92857C0.86183 3 0 2.32969 0 1.5ZM0 9C0 8.17031 0.86183 7.5 1.92857 7.5H25.0714C26.1382 7.5 27 8.17031 27 9C27 9.82969 26.1382 10.5 25.0714 10.5H1.92857C0.86183 10.5 0 9.82969 0 9ZM27 16.5C27 17.3297 26.1382 18 25.0714 18H1.92857C0.86183 18 0 17.3297 0 16.5C0 15.6703 0.86183 15 1.92857 15H25.0714C26.1382 15 27 15.6703 27 16.5Z" fill="#F6851F"/>
</svg>
