<svg xmlns="http://www.w3.org/2000/svg" width="47.493" height="27.906" viewBox="0 0 47.493 27.906">
  <path id="boleto" d="M22.063,354.476H25.43a.558.558,0,0,1,.556.556v21.841a.558.558,0,0,1-.556.556H22.063a.558.558,0,0,1-.556-.556V355.033A.558.558,0,0,1,22.063,354.476Zm24.317,20.95a.556.556,0,1,1,1.113,0v3.923a.558.558,0,0,1-.556.556H43.014a.556.556,0,0,1,0-1.113H46.38Zm1.113-18.975a.556.556,0,1,1-1.113,0v-3.339H43.014a.556.556,0,1,1,0-1.113h3.923a.558.558,0,0,1,.556.556ZM0,375.427a.556.556,0,1,1,1.113,0v3.366H4.479a.556.556,0,0,1,0,1.113H.556A.558.558,0,0,1,0,379.349Zm1.113-18.975a.556.556,0,1,1-1.113,0v-3.9A.558.558,0,0,1,.556,352H4.479a.556.556,0,1,1,0,1.113H1.113Zm39.953-1.975h3.367a.558.558,0,0,1,.556.556v21.841a.558.558,0,0,1-.556.556H41.066a.558.558,0,0,1-.556-.556V355.033A.558.558,0,0,1,41.066,354.476ZM28.6,376.873a.556.556,0,1,1-1.113,0V355.033a.556.556,0,1,1,1.113,0Zm2.671,0a.556.556,0,1,1-1.113,0V355.033a.556.556,0,1,1,1.113,0Zm2.7,0a.556.556,0,1,1-1.113,0V355.033a.556.556,0,1,1,1.113,0Zm2.7,0a.556.556,0,1,1-1.113,0V355.033a.556.556,0,1,1,1.113,0Zm2.7,0a.556.556,0,1,1-1.113,0V355.033a.556.556,0,1,1,1.113,0Zm-36.336-22.4H6.4a.558.558,0,0,1,.556.556v21.841a.558.558,0,0,1-.556.556H3.033a.558.558,0,0,1-.556-.556V355.033A.558.558,0,0,1,3.033,354.476ZM20,376.873a.556.556,0,1,1-1.113,0V355.033a.556.556,0,1,1,1.113,0Zm-2.7,0a.556.556,0,1,1-1.113,0V355.033a.556.556,0,1,1,1.113,0Zm-2.671,0a.558.558,0,0,1-.556.556.541.541,0,0,1-.556-.556V355.033a.541.541,0,0,1,.556-.556.558.558,0,0,1,.556.556Zm-2.7,0a.556.556,0,1,1-1.113,0V355.033a.556.556,0,1,1,1.113,0Zm-2.7,0a.556.556,0,1,1-1.113,0V355.033a.556.556,0,1,1,1.113,0Z" transform="translate(0 -352)" fill="#f5f5f5"/>
</svg>
