<svg xmlns="http://www.w3.org/2000/svg" width="70" height="70" viewBox="0 0 70 70">
  <g id="Grupo_147" data-name="Grupo 147" transform="translate(-1002 -1835)">
    <path id="Icon_material-attach-money" data-name="Icon material-attach-money" d="M18.922,18.111c-3.911-1.017-5.169-2.067-5.169-3.7,0-1.878,1.74-3.187,4.652-3.187,3.067,0,4.2,1.464,4.307,3.618H26.52a6.868,6.868,0,0,0-5.531-6.564V4.5H15.82V8.221c-3.342.724-6.03,2.894-6.03,6.22,0,3.98,3.291,5.961,8.1,7.116,4.307,1.034,5.169,2.55,5.169,4.152,0,1.189-.844,3.084-4.652,3.084-3.549,0-4.945-1.585-5.134-3.618H9.48c.207,3.773,3.032,5.892,6.34,6.6v3.739h5.169v-3.7c3.36-.637,6.03-2.584,6.03-6.116C27.019,20.8,22.833,19.128,18.922,18.111Z" transform="translate(1018.75 1849.994)" fill="#f7911d"/>
    <g id="Elipse_21" data-name="Elipse 21" transform="translate(1002 1835)" fill="none" stroke="#f7911d" stroke-width="1">
      <circle cx="35" cy="35" r="35" stroke="none"/>
      <circle cx="35" cy="35" r="34.5" fill="none"/>
    </g>
  </g>
</svg>
