<?xml version="1.0" standalone="no"?>
<!DOCTYPE svg PUBLIC "-//W3C//DTD SVG 20010904//EN"
 "http://www.w3.org/TR/2001/REC-SVG-20010904/DTD/svg10.dtd">
<svg version="1.0" xmlns="http://www.w3.org/2000/svg"
 width="96.000000pt" height="75.000000pt" viewBox="0 0 96.000000 75.000000"
 preserveAspectRatio="xMidYMid meet">

<g transform="translate(0.000000,75.000000) scale(0.100000,-0.100000)" stroke="none">
<path d="M17 732 c-15 -17 -17 -56 -17 -354 l0 -335 23 -21 c23 -22 26 -22
454 -22 420 0 431 0 457 21 l26 20 0 335 c0 321 -1 335 -20 354 -19 19 -33 20
-463 20 -417 0 -445 -1 -460 -18z m322 -167 c33 -16 41 -33 41 -80 0 -48 -8
-64 -42 -81 -63 -32 -138 12 -138 80 0 74 72 116 139 81z m491 -55 c0 -6 -45
-10 -115 -10 -70 0 -115 4 -115 10 0 6 45 10 115 10 70 0 115 -4 115 -10z m0
-105 c0 -12 -19 -15 -115 -15 -96 0 -115 3 -115 15 0 12 19 15 115 15 96 0
115 -3 115 -15z m-391 -119 c15 -14 21 -31 21 -63 l0 -43 -170 0 -170 0 0 40
c0 29 7 47 23 64 22 22 30 23 149 22 109 -1 129 -4 147 -20z m391 14 c0 -6
-45 -10 -115 -10 -70 0 -115 4 -115 10 0 6 45 10 115 10 70 0 115 -4 115 -10z"/>
</g>
</svg>
