<svg xmlns="http://www.w3.org/2000/svg" xmlns:xlink="http://www.w3.org/1999/xlink" width="249.929" height="246.634" viewBox="0 0 249.929 246.634">
  <defs>
    <clipPath id="clip-path">
      <rect id="Retângulo_331" data-name="Retângulo 331" width="249.929" height="184.236" fill="none"/>
    </clipPath>
  </defs>
  <g id="Grupo_181" data-name="Grupo 181" transform="translate(-349.071 -2402)">
    <text id="_1" data-name="1" transform="translate(414 2538)" fill="none" stroke="#3d246a" stroke-width="4" font-size="136" font-family="Montserrat-ExtraBoldItalic, Montserrat" font-weight="800" font-style="italic"><tspan x="-27" y="0">1</tspan></text>
    <g id="Grupo_169" data-name="Grupo 169" transform="translate(349.071 2464.398)">
      <g id="Grupo_166" data-name="Grupo 166" transform="translate(0 0)">
        <g id="Grupo_165" data-name="Grupo 165" clip-path="url(#clip-path)">
          <path id="Caminho_246" data-name="Caminho 246" d="M139.679,167.75c-36.192-23.142-42.408-15.42-75-1C29.372,182.38,8.037,168.093,5.817,143.531,1.276,93.286,70.759,115.2,63.561,61.886,58.262,22.6,77.272,5.188,102.847.993c25.3-4.153,60.726,3.824,58.754,41.086-1.094,20.611,30.518,28.778,51.032,38.447C243.484,95.065,238.9,133.26,226.316,150.6c-21.15,29.145-52.8,38.783-86.637,17.147" transform="translate(13.986 0)" fill="#ededed"/>
          <path id="Caminho_247" data-name="Caminho 247" d="M159.64,84.468H12.816A12.814,12.814,0,0,1,0,71.652V30.528A12.814,12.814,0,0,1,12.816,17.712H159.64a12.814,12.814,0,0,1,12.816,12.816V71.652A12.814,12.814,0,0,1,159.64,84.468" transform="translate(0 44.206)" fill="#d3d5fd"/>
        </g>
      </g>
      <text id="ABC-1234" transform="translate(20.9 102.784)" fill="#250e47" font-size="27" font-family="MyriadPro-Black, Myriad Pro" font-weight="800"><tspan x="0" y="0">ABC-1234</tspan></text>
      <g id="Grupo_168" data-name="Grupo 168" transform="translate(0 0)">
        <g id="Grupo_167" data-name="Grupo 167" clip-path="url(#clip-path)">
          <rect id="Retângulo_332" data-name="Retângulo 332" width="2.779" height="45.491" transform="translate(206.627 136.812)" fill="#bcb4fa"/>
          <rect id="Retângulo_333" data-name="Retângulo 333" width="29.204" height="3.887" transform="translate(193.584 179.342)" fill="#9d9ae5"/>
          <rect id="Retângulo_334" data-name="Retângulo 334" width="13.378" height="3.887" transform="translate(209.41 179.342)" fill="#bcb4fa"/>
          <path id="Caminho_248" data-name="Caminho 248" d="M95.986,41.928s-7.953,22.387-29.155,18.1-9.774-22.45-9.774-22.45Z" transform="translate(134.727 93.783)" fill="#bcb4fa"/>
          <path id="Caminho_249" data-name="Caminho 249" d="M69.841,29.413c2.52-3.157,11.368-7.988,17.486,0s6.555,46,1.531,48.843S48.887,74.268,57.189,57.729s7.726-22.146,12.651-28.316" transform="translate(139.565 62.527)" fill="#bcb4fa"/>
          <path id="Caminho_250" data-name="Caminho 250" d="M57.225,49.4s.566,4.929-2.3,7.32-4.552,3.129-7.764,2.629c-1.416-.22.451-1.93,2.346-3.44C54.3,52.1,53.149,48.74,53.149,48.74Z" transform="translate(116.471 121.646)" fill="#ffbe9e"/>
          <path id="Caminho_251" data-name="Caminho 251" d="M57.147,49.923s-6.195,6.869-8.614,3.929c0,0-2.555,1.136-1.762,2.479s4.157.842,6.32-.6c3.23-2.153,2.846-1.951,3.3-2.412a2.8,2.8,0,0,0,.752-3.4" transform="translate(116.35 124.599)" fill="#3e3331"/>
          <path id="Caminho_252" data-name="Caminho 252" d="M58.009,50.377s23.069,4.782,27.771,4.1c3.653-.528,10.341-3.293,7.338-11.515-3.02-8.285-41.275-9.949-45.561-.769-3.884,8.327,10.452,8.18,10.452,8.18" transform="translate(117.026 89.851)" fill="#130c2d"/>
          <path id="Caminho_253" data-name="Caminho 253" d="M56.5,81.66a3.781,3.781,0,0,1-5.356-2.472c-2.108-8.047-6.369-36.217-3.115-39.835,5-5.551,11.344-1.6,12.047,7.586.454,5.957-1.4,25.886-1.507,31.406a3.8,3.8,0,0,1-1.916,3.227c-.049.031-.1.059-.154.087" transform="translate(116.922 91.851)" fill="#130c2d"/>
          <path id="Caminho_254" data-name="Caminho 254" d="M67.552,35.892s8.456,8.184,3.7,14.277c-8.04,10.306-10.973-7.1-10.973-7.1a102.064,102.064,0,0,1,7.271-7.173" transform="translate(150.45 89.58)" fill="#1e1240"/>
          <path id="Caminho_255" data-name="Caminho 255" d="M64.485,38.863c-.79.664-6.974,10.1-10.4,9.9-2.482-.14-4-7.876-4-7.876s3.272.867,7.474-7.345c3.541-6.922,6.918,5.321,6.918,5.321" transform="translate(125.023 78.425)" fill="#ffbe9e"/>
          <path id="Caminho_256" data-name="Caminho 256" d="M71.867,39.55,57.58,35.883A3.689,3.689,0,0,1,56.7,35.4c-.426-.336-.863-.668-1.311-.979a12.391,12.391,0,0,0-2.936-1.577,8.177,8.177,0,0,0-2.489-.367,39.9,39.9,0,0,0-4.433.1,4.691,4.691,0,0,0-1.814.224.722.722,0,0,0,0,1.164,2.182,2.182,0,0,0,.769.357c1,.311,2,.636,3.017.9a5.6,5.6,0,0,1,2.146.661.774.774,0,0,1,.266.255.269.269,0,0,1-.052.336.436.436,0,0,1-.234.049,3.239,3.239,0,0,0-1.8.591c-.489.489.325.982.787,1.066a3.659,3.659,0,0,0,1.451-.133l1.489-.346a4.594,4.594,0,0,1,1.269-.175,3.177,3.177,0,0,1,1.65.713c.64.426,1.252.909,1.874,1.363a29.921,29.921,0,0,0,2.8,1.867q1.536.891,3.118,1.7A28.394,28.394,0,0,0,69.1,45.829c.255.052.514.1.776.136,5.5.776,1.993-6.415,1.993-6.415" transform="translate(108.363 81.013)" fill="#ffbe9e"/>
          <path id="Caminho_257" data-name="Caminho 257" d="M57.712,32.1c2.479-4.384,9.7-6.111,12.707-4.429,1.64.919.161,4.719-.2,7.187-.626,4.338-4.5,11.1-10.568,16.71-2.223,2.059-9.568-.322-8.075-5.286A58.11,58.11,0,0,1,57.712,32.1" transform="translate(128.24 67.474)" fill="#d3841c"/>
          <path id="Caminho_258" data-name="Caminho 258" d="M56.176,30.4c3.311-4.073,19.57-5.677,23.328-.444,0,0,1.175,3.6,1.856,6.632-.961,2.947-3.041,5.814-3.178,8.138-.7,12.109,7.915,11.127,7.38,13.976-.958,5.118-12.05,8.362-19.874,7.18-2.769-.419-9.086-5.569-8.53-6.929,4.891-11.931-3.936-7.715-3.936-13.742,0-3.251,1.629-13.183,2.954-14.812" transform="translate(132.832 66.517)" fill="#e79e30"/>
          <path id="Caminho_259" data-name="Caminho 259" d="M62.148,34.56s1.993,6.219-.192,6.852c-4.681,1.356-7.733-.122-8.572-4.09s1.664-12.749,5.177-15.5a3.529,3.529,0,0,1,5.576.829s-8.865,3.919-1.989,11.907" transform="translate(132.831 51.881)" fill="#1e1240"/>
          <path id="Caminho_260" data-name="Caminho 260" d="M63.673,23.631s-7.729,2.681-7.117,3.377.059,2.419.308,3.947a9.282,9.282,0,0,1-1.416,5.485c-.71,1.332.58,2.43,2.08,2.479,6.467.217,10.606-2.811,8.9-4.656-3.3-3.583-2.758-10.631-2.758-10.631" transform="translate(137.885 58.979)" fill="#ffbe9e"/>
          <path id="Caminho_261" data-name="Caminho 261" d="M55.953,30.955c-.248-1.528.3-3.251-.308-3.947s7.117-3.377,7.117-3.377a8.757,8.757,0,0,0-.7,4.212,29.793,29.793,0,0,1-6.257,5.118,5.443,5.443,0,0,0,.143-2.007" transform="translate(138.795 58.979)" fill="#ff9c81"/>
          <path id="Caminho_262" data-name="Caminho 262" d="M58.808,21.958c-2.562,2.468-7.516,12.2-2.573,16.647,2.111,1.9,8.005-.979,11.05-5.786,1.252-1.975,1.293-6.327-.622-10.071a5.176,5.176,0,0,0-7.855-.79" transform="translate(135.087 51.132)" fill="#ffbe9e"/>
          <path id="Caminho_263" data-name="Caminho 263" d="M54.656,27.176c.538.947.241-1.377,2.5-2.335a4.694,4.694,0,0,1,.881-.245,2.089,2.089,0,0,1,.766-.028,1.206,1.206,0,0,1,.912,1.084A5.311,5.311,0,0,0,61.3,28.424a7.511,7.511,0,0,1,1.926,2.989,4.2,4.2,0,0,0,.329,1.007,3.009,3.009,0,0,1,.416,1.269c.038.433-.014.87-.01,1.3a1.633,1.633,0,0,0,.7,1.461,3.184,3.184,0,0,0,.661.381,3.49,3.49,0,0,0,1.528.3,3.381,3.381,0,0,0,2.842-1.814c1-1.807.822-4.129.472-6.09a27.434,27.434,0,0,0-1.08-4.083,6.371,6.371,0,0,0-2.265-3.062,8.714,8.714,0,0,0-4.828-1.643,8.973,8.973,0,0,0-2.59.266c-6.083,1.584-5.174,5.723-4.744,6.467" transform="translate(135.624 51.005)" fill="#1e1240"/>
          <path id="Caminho_264" data-name="Caminho 264" d="M59,34.461s-.5,6.055,1.762,6.327,6.537-.038,7.145-4.045-2.391-12.637-6.055-15.193a3.523,3.523,0,0,0-5.52,1.129S65.406,26.113,59,34.461" transform="translate(140.591 51.54)" fill="#1e1240"/>
          <path id="Caminho_265" data-name="Caminho 265" d="M57.528,25.236s2.111-2.213,3.4-1.723-.21,4.111-2.814,3.828-1.238-1.5-.584-2.1" transform="translate(141.219 58.507)" fill="#ffbe9e"/>
          <path id="Caminho_266" data-name="Caminho 266" d="M58.816,25.1a.938.938,0,1,1-1.056-.8.938.938,0,0,1,1.056.8" transform="translate(142.13 60.61)" fill="#e8d04b"/>
          <path id="Caminho_267" data-name="Caminho 267" d="M53.136,32.661a5.155,5.155,0,0,0,2.444,2.311c2.356,1.035,4.726-.315,6.551-1.772.353-.28-.147-.773-.5-.5-2.451,1.958-6.174,2.992-7.894-.4-.2-.4-.808-.049-.6.353" transform="translate(132.516 80.191)" fill="#d3841c"/>
          <path id="Caminho_268" data-name="Caminho 268" d="M56.213,33.562a6.29,6.29,0,0,0,9.669-1.185c.262-.367-.346-.72-.6-.357a5.58,5.58,0,0,1-8.568,1.045c-.343-.287-.842.206-.5.5" transform="translate(140.006 79.535)" fill="#d3841c"/>
          <path id="Caminho_269" data-name="Caminho 269" d="M60.916,50.383s.426,4.957-2.7,7.208-4.936,2.909-8.327,2.251c-1.489-.287.545-1.905,2.611-3.325,5.219-3.583,4.111-7,4.111-7Z" transform="translate(123.247 123.6)" fill="#ffbe9e"/>
          <path id="Caminho_270" data-name="Caminho 270" d="M60.7,50.759s-6.813,6.569-9.271,3.513c0,0-2.751,1.014-1.954,2.391s4.373,1.045,6.719-.29c3.5-2,3.087-1.814,3.59-2.251a2.678,2.678,0,0,0,.916-3.363" transform="translate(123.125 126.685)" fill="#3e3331"/>
          <path id="Caminho_271" data-name="Caminho 271" d="M61.677,53.084S79.4,55.4,84.4,54.95c3.891-.353,13.746-1.433,13.746-6.936,0-17.906-42.39-12.585-47.26-3.611-4.415,8.138,10.788,8.68,10.788,8.68" transform="translate(125.002 90.147)" fill="#1e1240"/>
          <path id="Caminho_272" data-name="Caminho 272" d="M59.005,82.614a4.106,4.106,0,0,1-5.586-2.727c-1.947-8.149-5.464-36.517-1.881-39.975,5.5-5.314,12.082-1.059,12.5,8.159.269,5.978-2.409,25.813-2.72,31.326a3.723,3.723,0,0,1-2.139,3.136c-.056.028-.115.056-.171.08" transform="translate(124.777 93.816)" fill="#1e1240"/>
          <path id="Caminho_273" data-name="Caminho 273" d="M90.094,38.009c2.7,1.258,3.5,4.478-.734,4.971-2.283.266-5.114-.829-7.282-1.43a84.541,84.541,0,0,0-11.162-2.664c-4.9-.675-13.7-2.038-17.57,1.737-2.909,2.842-2.517,8.708-2.513,12.354,0,9.9,1.461,19.828,2.919,29.627.038.252.451.231.416-.021-1.5-10.1-3.048-20.377-2.916-30.581.038-2.982-.049-6.869,1.395-9.624,2.1-4.013,8.334-3.8,12.424-3.632A54.294,54.294,0,0,1,76.642,40.41c4.177,1.094,8.844,3.227,13.256,3,5.044-.259,4.09-4.02.374-5.754a.2.2,0,1,0-.178.353" transform="translate(126.821 93.927)" fill="#130c2d"/>
          <path id="Caminho_274" data-name="Caminho 274" d="M57.336,23.836c.056-.045-.066.045-.087.059a1.394,1.394,0,0,1-.308.15c-.423.133-.682-.108-.863-.451-.115-.217-.447-.01-.332.206a1.158,1.158,0,0,0,1.881.29c.192-.161-.1-.413-.29-.255" transform="translate(139.069 58.659)" fill="#201714"/>
          <path id="Caminho_275" data-name="Caminho 275" d="M56.08,23.5a1.315,1.315,0,0,1-.308.315c-.385.276-.678.066-.916-.276-.136-.2-.472,0-.332.206a1,1,0,0,0,1.217.521,1.545,1.545,0,0,0,.685-.591c.143-.206-.206-.378-.346-.175" transform="translate(136 58.435)" fill="#201714"/>
          <path id="Caminho_276" data-name="Caminho 276" d="M54.868,23.268a1.168,1.168,0,0,1,1.528.489c.168.255.545-.031.378-.287a1.615,1.615,0,0,0-2.084-.64.236.236,0,0,0,.178.437" transform="translate(136.143 56.594)" fill="#56301b"/>
          <path id="Caminho_277" data-name="Caminho 277" d="M56.066,23.61a1.171,1.171,0,0,1,1.6.056c.231.2.514-.178.287-.378a1.621,1.621,0,0,0-2.181-.052c-.238.2.056.57.29.374" transform="translate(138.986 57.003)" fill="#56301b"/>
          <path id="Caminho_278" data-name="Caminho 278" d="M56.08,23.38a2.356,2.356,0,0,1,.2,1.3c-.112.622-.766.965-1.087,1.5-.444.741.112,1.094.972,1.241.206.035.276-.231.07-.266-1.926-.325.147-1.521.346-2.332a2.5,2.5,0,0,0-.189-1.542c-.07-.161-.385-.07-.315.094" transform="translate(137.367 57.908)" fill="#56301b"/>
          <path id="Caminho_279" data-name="Caminho 279" d="M57.125,24.706s.231,1.224-.794,1.342a1.2,1.2,0,0,1-1.262-.972Z" transform="translate(137.442 61.662)" fill="#faffff"/>
          <path id="Caminho_280" data-name="Caminho 280" d="M57.841,25.186a.918.918,0,1,1-.7-1.094.917.917,0,0,1,.7,1.094" transform="translate(139.83 60.074)" fill="#ff9c81"/>
          <path id="Caminho_281" data-name="Caminho 281" d="M54.572,24.234a.929.929,0,1,1,0,1.314.928.928,0,0,1,0-1.314" transform="translate(135.52 59.802)" fill="#ff9c81"/>
          <path id="Caminho_282" data-name="Caminho 282" d="M67.342,32.6c.255.972,6.254,12.389,4.625,15.329-1.182,2.129-8.712.262-8.712.262s-.29-6.667-2.8-11.2C56.8,30.343,67.342,32.6,67.342,32.6" transform="translate(148.965 80.439)" fill="#ffbe9e"/>
          <path id="Caminho_283" data-name="Caminho 283" d="M78.436,41.743c-5.272,1.821-21.971.874-21.971.874l2.017-3.6L77.2,35.136s6.509,4.782,1.238,6.607" transform="translate(140.926 87.693)" fill="#ffbe9e"/>
          <path id="Caminho_284" data-name="Caminho 284" d="M63.626,38.623a4.091,4.091,0,0,1-.808-.947A6.793,6.793,0,0,0,61,36.19c-.371-.234-.87-1.161-1.4-.968-.867.315.385,1.629.552,2.007a.905.905,0,0,1-.14,1.052,1.125,1.125,0,0,1-.71.2,22.661,22.661,0,0,1-2.384-.143c-.413-.031-.822-.035-1.238-.038a4.335,4.335,0,0,0-1.014-.056.423.423,0,0,0-.311.566c.108.217.339.161.538.2.451.087.9.185,1.346.287.1.024.559.063.608.164.234.489-1,.4-1.2.4a2.469,2.469,0,0,0-1.44.273c-.056.038-.115.087-.119.154-.01.108.108.175.21.206.6.185,1.255.147,1.849.346.1.031.206.087.224.189.07.406-.748.514-1.01.573-.168.038-.371.1-.4.269a.284.284,0,0,0,.154.276.843.843,0,0,0,.322.084,7.9,7.9,0,0,0,.993.1c.161,0,.629-.045.675.164a.156.156,0,0,1-.031.122.859.859,0,0,1-.4.231c-.143.059-.294.164-.3.322,0,.192.213.308.4.353a7.077,7.077,0,0,0,2.087.063c.731-.035,1.461-.1,2.185-.21.909-.129,1.8-.322,2.692-.538a14.218,14.218,0,0,0,2.171-.444,1.636,1.636,0,0,0,.867-1.213c.094-.5.049-1,.094-1.5.024-.308.059-.559-.2-.755a15.2,15.2,0,0,0-2.7-.122,1.3,1.3,0,0,1-.35-.171" transform="translate(135.003 87.842)" fill="#ffbe9e"/>
          <path id="Caminho_285" data-name="Caminho 285" d="M58.848,35.791c-.738-3.817-.021-7.7,3.223-8.509,1.842-.454,5.1,1.51,6.394,3.639a32.19,32.19,0,0,1,4.835,18.8c-.189,3.013-7.212,6.38-9.586,1.786-3.118-6.03-3.828-10.344-4.866-15.721" transform="translate(146.212 67.927)" fill="#d3841c"/>
        </g>
      </g>
    </g>
  </g>
</svg>
