<svg xmlns="http://www.w3.org/2000/svg" xmlns:xlink="http://www.w3.org/1999/xlink" width="298.711" height="242.94" viewBox="0 0 298.711 242.94">
  <defs>
    <clipPath id="clip-path">
      <rect id="Retângulo_255" data-name="Retângulo 255" width="244.711" height="166.198" fill="none"/>
    </clipPath>
  </defs>
  <g id="Grupo_184" data-name="Grupo 184" transform="translate(-1305 -2402)">
    <text id="_4" data-name="4" transform="translate(1357 2538)" fill="none" stroke="#3d246a" stroke-width="4" font-size="136" font-family="Montserrat-ExtraBoldItalic, Montserrat" font-weight="800" font-style="italic"><tspan x="-47" y="0">4</tspan></text>
    <g id="Grupo_154" data-name="Grupo 154" transform="translate(1359 2478.742)">
      <g id="Grupo_153" data-name="Grupo 153" transform="translate(0 0)" clip-path="url(#clip-path)">
        <path id="Caminho_90" data-name="Caminho 90" d="M114.732,152.734c-30.339-21.321-35.459-14.351-62.509-1.485-29.3,13.94-47.19.783-49.231-21.57-4.172-45.725,53.9-25.264,47.494-73.8C45.765,20.119,61.474,4.429,82.753.81c21.056-3.581,50.635,3.949,49.277,37.814-.75,18.737,25.656,26.406,42.824,35.356,25.82,13.462,22.295,48.157,11.942,63.828-17.4,26.344-43.7,34.861-72.063,14.927" transform="translate(6.206 -0.001)" fill="#ededed"/>
        <path id="Retângulo_187" data-name="Retângulo 187" d="M1.635,0H124.968A1.634,1.634,0,0,1,126.6,1.634V81.708a1.634,1.634,0,0,1-1.634,1.634H1.632A1.632,1.632,0,0,1,0,81.71V1.635A1.635,1.635,0,0,1,1.635,0Z" transform="translate(0 22.64)" fill="#d3d5fd"/>
        <path id="Retângulo_188" data-name="Retângulo 188" d="M1.632,0H124.968A1.634,1.634,0,0,1,126.6,1.634V81.708a1.634,1.634,0,0,1-1.634,1.634H1.632A1.632,1.632,0,0,1,0,81.71V1.632A1.632,1.632,0,0,1,1.632,0Z" transform="translate(5.112 22.64)" fill="#efeefe"/>
        <rect id="Retângulo_189" data-name="Retângulo 189" width="59.86" height="9.522" transform="translate(66.736 85.402)" fill="#fff"/>
        <path id="Caminho_91" data-name="Caminho 91" d="M5.279,7H121.317a5.285,5.285,0,0,1,5.288,5.285V29.217H0V12.285A5.279,5.279,0,0,1,5.279,7" transform="translate(0 15.641)" fill="#5b2d90"/>
        <path id="Caminho_92" data-name="Caminho 92" d="M36.843,13.281a2.225,2.225,0,1,0,2.225-2.225,2.222,2.222,0,0,0-2.225,2.225" transform="translate(82.323 24.704)" fill="#fff"/>
        <path id="Caminho_93" data-name="Caminho 93" d="M35.105,13.281a2.227,2.227,0,1,0,2.232-2.225,2.227,2.227,0,0,0-2.232,2.225" transform="translate(78.44 24.704)" fill="#fff"/>
        <path id="Caminho_94" data-name="Caminho 94" d="M31.153,11.164a2.623,2.623,0,1,0,2.626-2.626,2.625,2.625,0,0,0-2.626,2.626" transform="translate(69.609 19.078)" fill="#fff"/>
        <path id="Caminho_95" data-name="Caminho 95" d="M6.859,7H122.9a5.285,5.285,0,0,1,5.288,5.285V29.217H1.58V12.285A5.279,5.279,0,0,1,6.859,7" transform="translate(3.53 15.641)" fill="#73479c"/>
        <path id="Caminho_96" data-name="Caminho 96" d="M37.674,33.443A17.186,17.186,0,1,1,20.487,16.255,17.187,17.187,0,0,1,37.674,33.443" transform="translate(7.378 36.321)" fill="#fff"/>
        <path id="Caminho_97" data-name="Caminho 97" d="M15.165,21.377a9.728,9.728,0,0,0-9.48,7.572h18.96a9.728,9.728,0,0,0-9.48-7.572" transform="translate(12.703 47.765)" fill="#1e1240"/>
        <rect id="Retângulo_190" data-name="Retângulo 190" width="71.84" height="1.866" transform="translate(51.677 54.203)" fill="#bcb4fa"/>
        <rect id="Retângulo_191" data-name="Retângulo 191" width="71.84" height="1.866" transform="translate(51.677 58.948)" fill="#bcb4fa"/>
        <rect id="Retângulo_192" data-name="Retângulo 192" width="71.84" height="1.866" transform="translate(51.677 63.692)" fill="#bcb4fa"/>
        <path id="Caminho_98" data-name="Caminho 98" d="M26.7,17.726H7.8a4.341,4.341,0,0,1,0-8.681H26.7a4.341,4.341,0,1,1,0,8.681" transform="translate(7.729 20.21)" fill="#fff"/>
        <rect id="Retângulo_193" data-name="Retângulo 193" width="11.375" height="6.129" transform="translate(32.726 91.289)" fill="#fff"/>
        <rect id="Retângulo_194" data-name="Retângulo 194" width="0.534" height="8.426" transform="translate(53.426 87.433)" fill="#bcb4fa"/>
        <rect id="Retângulo_195" data-name="Retângulo 195" width="0.534" height="8.426" transform="translate(55.031 87.433)" fill="#bcb4fa"/>
        <rect id="Retângulo_196" data-name="Retângulo 196" width="0.534" height="8.426" transform="translate(55.836 87.433)" fill="#bcb4fa"/>
        <rect id="Retângulo_197" data-name="Retângulo 197" width="0.534" height="8.426" transform="translate(56.638 87.433)" fill="#bcb4fa"/>
        <rect id="Retângulo_198" data-name="Retângulo 198" width="0.534" height="8.426" transform="translate(58.042 87.433)" fill="#bcb4fa"/>
        <rect id="Retângulo_199" data-name="Retângulo 199" width="0.534" height="8.426" transform="translate(66.739 87.433)" fill="#bcb4fa"/>
        <rect id="Retângulo_200" data-name="Retângulo 200" width="0.534" height="8.426" transform="translate(68.347 87.433)" fill="#bcb4fa"/>
        <rect id="Retângulo_201" data-name="Retângulo 201" width="0.534" height="8.426" transform="translate(69.149 87.433)" fill="#bcb4fa"/>
        <rect id="Retângulo_202" data-name="Retângulo 202" width="0.534" height="8.426" transform="translate(69.951 87.433)" fill="#bcb4fa"/>
        <rect id="Retângulo_203" data-name="Retângulo 203" width="0.534" height="8.426" transform="translate(71.358 87.433)" fill="#bcb4fa"/>
        <rect id="Retângulo_204" data-name="Retângulo 204" width="0.534" height="8.426" transform="translate(72.26 87.433)" fill="#bcb4fa"/>
        <rect id="Retângulo_205" data-name="Retângulo 205" width="0.534" height="8.426" transform="translate(73.063 87.433)" fill="#bcb4fa"/>
        <rect id="Retângulo_206" data-name="Retângulo 206" width="0.534" height="8.426" transform="translate(74.47 87.433)" fill="#bcb4fa"/>
        <rect id="Retângulo_207" data-name="Retângulo 207" width="0.534" height="8.426" transform="translate(75.372 87.433)" fill="#bcb4fa"/>
        <rect id="Retângulo_208" data-name="Retângulo 208" width="0.534" height="8.426" transform="translate(76.776 87.433)" fill="#bcb4fa"/>
        <rect id="Retângulo_209" data-name="Retângulo 209" width="0.534" height="8.426" transform="translate(78.648 87.433)" fill="#bcb4fa"/>
        <rect id="Retângulo_210" data-name="Retângulo 210" width="0.534" height="8.426" transform="translate(79.454 87.433)" fill="#bcb4fa"/>
        <rect id="Retângulo_211" data-name="Retângulo 211" width="0.534" height="8.426" transform="translate(80.858 87.433)" fill="#bcb4fa"/>
        <rect id="Retângulo_212" data-name="Retângulo 212" width="0.534" height="8.426" transform="translate(81.76 87.433)" fill="#bcb4fa"/>
        <rect id="Retângulo_213" data-name="Retângulo 213" width="0.534" height="8.426" transform="translate(83.167 87.433)" fill="#bcb4fa"/>
        <rect id="Retângulo_214" data-name="Retângulo 214" width="0.534" height="8.426" transform="translate(84.571 87.433)" fill="#bcb4fa"/>
        <rect id="Retângulo_215" data-name="Retângulo 215" width="0.534" height="8.426" transform="translate(85.978 87.433)" fill="#bcb4fa"/>
        <rect id="Retângulo_216" data-name="Retângulo 216" width="0.534" height="8.426" transform="translate(59.649 87.433)" fill="#bcb4fa"/>
        <rect id="Retângulo_217" data-name="Retângulo 217" width="0.534" height="8.426" transform="translate(60.452 87.433)" fill="#bcb4fa"/>
        <rect id="Retângulo_218" data-name="Retângulo 218" width="0.534" height="8.426" transform="translate(61.254 87.433)" fill="#bcb4fa"/>
        <rect id="Retângulo_219" data-name="Retângulo 219" width="0.534" height="8.426" transform="translate(62.492 87.433)" fill="#bcb4fa"/>
        <rect id="Retângulo_220" data-name="Retângulo 220" width="0.534" height="8.426" transform="translate(64.097 87.433)" fill="#bcb4fa"/>
        <rect id="Retângulo_221" data-name="Retângulo 221" width="0.534" height="8.426" transform="translate(64.899 87.433)" fill="#bcb4fa"/>
        <rect id="Retângulo_222" data-name="Retângulo 222" width="0.534" height="8.426" transform="translate(65.704 87.433)" fill="#bcb4fa"/>
        <rect id="Retângulo_223" data-name="Retângulo 223" width="0.534" height="8.426" transform="translate(87.744 87.588)" fill="#bcb4fa"/>
        <rect id="Retângulo_224" data-name="Retângulo 224" width="0.534" height="8.426" transform="translate(89.351 87.588)" fill="#bcb4fa"/>
        <rect id="Retângulo_225" data-name="Retângulo 225" width="0.534" height="8.426" transform="translate(90.153 87.588)" fill="#bcb4fa"/>
        <rect id="Retângulo_226" data-name="Retângulo 226" width="0.534" height="8.426" transform="translate(90.955 87.588)" fill="#bcb4fa"/>
        <rect id="Retângulo_227" data-name="Retângulo 227" width="0.534" height="8.426" transform="translate(92.362 87.588)" fill="#bcb4fa"/>
        <rect id="Retângulo_228" data-name="Retângulo 228" width="0.534" height="8.426" transform="translate(101.06 87.588)" fill="#bcb4fa"/>
        <rect id="Retângulo_229" data-name="Retângulo 229" width="0.534" height="8.426" transform="translate(102.664 87.588)" fill="#bcb4fa"/>
        <rect id="Retângulo_230" data-name="Retângulo 230" width="0.534" height="8.426" transform="translate(103.469 87.588)" fill="#bcb4fa"/>
        <rect id="Retângulo_231" data-name="Retângulo 231" width="0.534" height="8.426" transform="translate(104.272 87.588)" fill="#bcb4fa"/>
        <rect id="Retângulo_232" data-name="Retângulo 232" width="0.534" height="8.426" transform="translate(105.675 87.588)" fill="#bcb4fa"/>
        <rect id="Retângulo_233" data-name="Retângulo 233" width="0.534" height="8.426" transform="translate(106.578 87.588)" fill="#bcb4fa"/>
        <rect id="Retângulo_234" data-name="Retângulo 234" width="0.534" height="8.426" transform="translate(107.383 87.588)" fill="#bcb4fa"/>
        <rect id="Retângulo_235" data-name="Retângulo 235" width="0.534" height="8.426" transform="translate(108.787 87.588)" fill="#bcb4fa"/>
        <rect id="Retângulo_236" data-name="Retângulo 236" width="0.534" height="8.426" transform="translate(109.689 87.588)" fill="#bcb4fa"/>
        <rect id="Retângulo_237" data-name="Retângulo 237" width="0.534" height="8.426" transform="translate(111.096 87.588)" fill="#bcb4fa"/>
        <rect id="Retângulo_238" data-name="Retângulo 238" width="0.534" height="8.426" transform="translate(112.969 87.588)" fill="#bcb4fa"/>
        <rect id="Retângulo_239" data-name="Retângulo 239" width="0.534" height="8.426" transform="translate(113.771 87.588)" fill="#bcb4fa"/>
        <rect id="Retângulo_240" data-name="Retângulo 240" width="0.534" height="8.426" transform="translate(115.178 87.588)" fill="#bcb4fa"/>
        <rect id="Retângulo_241" data-name="Retângulo 241" width="0.534" height="8.426" transform="translate(116.081 87.588)" fill="#bcb4fa"/>
        <rect id="Retângulo_242" data-name="Retângulo 242" width="0.534" height="8.426" transform="translate(117.484 87.588)" fill="#bcb4fa"/>
        <rect id="Retângulo_243" data-name="Retângulo 243" width="0.534" height="8.426" transform="translate(118.891 87.588)" fill="#bcb4fa"/>
        <rect id="Retângulo_244" data-name="Retângulo 244" width="0.534" height="8.426" transform="translate(120.295 87.588)" fill="#bcb4fa"/>
        <rect id="Retângulo_245" data-name="Retângulo 245" width="0.534" height="8.426" transform="translate(93.967 87.588)" fill="#bcb4fa"/>
        <rect id="Retângulo_246" data-name="Retângulo 246" width="0.534" height="8.426" transform="translate(94.769 87.588)" fill="#bcb4fa"/>
        <rect id="Retângulo_247" data-name="Retângulo 247" width="0.534" height="8.426" transform="translate(95.574 87.588)" fill="#bcb4fa"/>
        <rect id="Retângulo_248" data-name="Retângulo 248" width="0.534" height="8.426" transform="translate(96.81 87.588)" fill="#bcb4fa"/>
        <rect id="Retângulo_249" data-name="Retângulo 249" width="0.534" height="8.426" transform="translate(98.417 87.588)" fill="#bcb4fa"/>
        <rect id="Retângulo_250" data-name="Retângulo 250" width="0.534" height="8.426" transform="translate(99.219 87.588)" fill="#bcb4fa"/>
        <rect id="Retângulo_251" data-name="Retângulo 251" width="0.534" height="8.426" transform="translate(100.022 87.588)" fill="#bcb4fa"/>
        <rect id="Retângulo_252" data-name="Retângulo 252" width="44.761" height="15.419" transform="translate(51.651 67.011)" fill="#bcb4fa"/>
        <rect id="Retângulo_253" data-name="Retângulo 253" width="22.36" height="15.419" transform="translate(100.824 67.011)" fill="#bcb4fa"/>
        <path id="Caminho_99" data-name="Caminho 99" d="M36.055,58.811c2.445,2.62,8.73,7.973,21.066,10.59a8.776,8.776,0,0,0,9.464-3.619c6.026-9.926,20.513-34.3,6.747-43.341C57.613,12.119,36.709,43.981,34.894,55.457a4,4,0,0,0,1.161,3.354" transform="translate(77.874 45.609)" fill="#5b2d90"/>
        <path id="Caminho_100" data-name="Caminho 100" d="M52.467,12.089C59.149,4.1,82.411-11.26,102.659,17.061c4.441,6.2,9.629,17.447,23.615,19.306,9.862,1.313,32.745,14.012,18.333,41.692s6.669,19.633-.226,39.716c-9.577,27.891-66.345,5.434-82.562-22.12C36.33,52.338,39.739,27.31,52.467,12.089" transform="translate(95.463 1.554)" fill="#1e1240"/>
        <path id="Caminho_101" data-name="Caminho 101" d="M67.848,19.683c11.754-.6,29.4-1.294,43.429,1.97,7.119,1.656,13.442,5.589,14.335,12.844a151.7,151.7,0,0,1,1.061,18.731A107.185,107.185,0,0,0,116.49,77.059c-9.933,34.67,12.8,26.577,8.452,34.029-6.207,10.645-48.5,9.69-73.454,5.806-8.232-1.284-14.134-6.627-12.3-10.6C52.193,78.016,38.1,75.969,44.033,59.059c.977-2.775-1.368-5.505-1.006-8.558.281-5.706,2.985-13.09,5.757-19.29,3.331-7.439,10.923-11.11,19.064-11.528" transform="translate(86.807 42.845)" fill="#73479c"/>
        <path id="Caminho_102" data-name="Caminho 102" d="M60.647,36.07S54.831,4.5,43.388,37.393c0,0-17.259,35.944,16.318,40.055C87.095,80.8,65.692,42.6,65.692,42.6Z" transform="translate(87.038 50.101)" fill="#3e246a"/>
        <path id="Caminho_103" data-name="Caminho 103" d="M39.467,36.176c5.159,12.76,18.854,10.6,28.366,4.237.64-.43.039-1.475-.608-1.041-8.752,5.854-21.777,8.4-26.593-3.516-.288-.712-1.455-.4-1.164.32" transform="translate(88.083 79.219)" fill="#3e246a"/>
        <path id="Caminho_104" data-name="Caminho 104" d="M50.221,38.336c9.48,9.428,22.3,8.985,30.976-1.116.5-.585-.346-1.443-.854-.854C72.1,45.973,60,46.361,51.075,37.483a.6.6,0,0,0-.854.854" transform="translate(111.815 80.817)" fill="#3e246a"/>
        <path id="Caminho_105" data-name="Caminho 105" d="M80.345,24.81C82.088,30.528,76,37.447,66.75,40.267c-3.842,1.168-6.217-4.907-9.451-5.389-4.557-.679-9.435,3.483-10.454.136C45.1,29.3,51.19,22.377,60.44,19.56s18.161-.469,19.9,5.249" transform="translate(104.008 41.043)" fill="#fff"/>
        <path id="Caminho_106" data-name="Caminho 106" d="M67.755,12.016s-1.388,16.677,4.321,23.4c3.642,4.289-21.8,16.981-21.839,10.748-.061-8,4.017-13.306-1.992-21.768Z" transform="translate(107.8 26.849)" fill="#87674b"/>
        <path id="Caminho_107" data-name="Caminho 107" d="M48.512,10.584c-3.894,8.781-7.135,45.376,9.975,45.79,7.727.181,19.293-11.1,22-26.1C81.616,24.11,77.149,13.5,68.4,6.456,64.438,3.264,52.972.327,48.512,10.584" transform="translate(101.463 7.746)" fill="#87674b"/>
        <path id="Caminho_108" data-name="Caminho 108" d="M45.153,26.987c.812,4.134,6.31-12.417,11.553-5.039,5.489,7.721,13.892,2.238,20.749,17.359,4.687,10.3,10.078-12.922,10.467-14.7,1.6-7.494,1.6-7.494-9.642-18.09-11.24-10.625-37.254-.2-33.127,20.467" transform="translate(99.908 5.147)" fill="#1e1240"/>
        <path id="Caminho_109" data-name="Caminho 109" d="M49.468,27.772s9.082-1.038,17.023-11.534a10.734,10.734,0,0,0,.443,2.131S58.2,29.438,49.054,30.421Z" transform="translate(109.608 36.283)" fill="#75543e"/>
        <path id="Caminho_110" data-name="Caminho 110" d="M161.561,56.075H22V46.789H167.235Z" transform="translate(49.148 104.546)" fill="#302065"/>
        <path id="Caminho_111" data-name="Caminho 111" d="M131.376,105.821H27.939L12.73,24.517H110.97Z" transform="translate(28.445 54.782)" fill="#302065"/>
        <path id="Caminho_112" data-name="Caminho 112" d="M130.264,105.821H26.83l-15.208-81.3h98.239Z" transform="translate(25.967 54.782)" fill="#614dd4"/>
        <path id="Caminho_113" data-name="Caminho 113" d="M75.721,47.086s-11.091,3.529-13,2.568c-8.523-4.3-20.865,2.7-19.5,5.211,1.016,1.9,18.744,3.315,21.134,3.192a91.648,91.648,0,0,0,12.957-1.973c2.588-.734-1.591-9-1.591-9" transform="translate(96.344 105.21)" fill="#87674b"/>
        <path id="Caminho_114" data-name="Caminho 114" d="M87.013,29.356c3.2-3.632,8.5-11.259,13.306-4.683,5.929,8.105,22.046,77.723,8.688,83.756s-59.323,5.482-59.323,5.482l5.583-8.888L95.448,90.548s-20.17-47.86-8.435-61.192" transform="translate(111.016 49.357)" fill="#87674b"/>
        <path id="Caminho_115" data-name="Caminho 115" d="M68.423,73.065c3.581.188,11.819-.327,22.512-7.012a8.783,8.783,0,0,0,4.3-9.176c-2.562-11.327-9.069-38.926-25.251-35.87C51.507,24.5,58.594,61.939,65.26,71.458a4,4,0,0,0,3.163,1.608" transform="translate(129.983 46.415)" fill="#5b2d90"/>
        <path id="Caminho_116" data-name="Caminho 116" d="M50.542,49.149c2.39-3.7,4.315,4.163,4.431,5.453.11,1.232.252,3.014-.485,4.095a1.7,1.7,0,0,1-3.144-.783.531.531,0,0,0-1.061.039,2.656,2.656,0,0,0,3.516,2.5c2.067-.579,2.322-3.047,2.29-4.884-.039-2.329-.5-5.476-2.138-7.274a2.585,2.585,0,0,0-4.354.365c-.369.576.576,1.058.944.488" transform="translate(110.636 105.625)" fill="#4d4382"/>
        <path id="Caminho_117" data-name="Caminho 117" d="M51.54,48.93c2.39-3.7,4.315,4.163,4.431,5.453.11,1.232.252,3.014-.485,4.095a1.7,1.7,0,0,1-3.144-.783.531.531,0,0,0-1.061.039,2.656,2.656,0,0,0,3.516,2.5c2.067-.579,2.322-3.047,2.29-4.884-.039-2.329-.5-5.476-2.138-7.274a2.585,2.585,0,0,0-4.354.365c-.369.576.576,1.058.944.488" transform="translate(112.866 105.135)" fill="#4d4382"/>
        <path id="Caminho_118" data-name="Caminho 118" d="M54.045,13.1c.126-.133-.149.133-.2.175a3.628,3.628,0,0,1-.718.463c-1.019.456-1.734-.068-2.29-.873-.349-.5-1.119.11-.77.615,1.232,1.779,3.289,1.721,4.774.171.437-.456-.362-1-.8-.55" transform="translate(111.671 28.319)" fill="#201714"/>
        <path id="Caminho_119" data-name="Caminho 119" d="M50.562,12.962a3.307,3.307,0,0,1-.679.877c-.873.8-1.666.365-2.355-.42-.4-.463-1.177.149-.77.615.812.925,1.934,1.62,3.186.938a4,4,0,0,0,1.536-1.675c.291-.55-.631-.88-.919-.333" transform="translate(104.221 28.336)" fill="#201714"/>
        <path id="Caminho_120" data-name="Caminho 120" d="M47.441,12.41a2.935,2.935,0,0,1,3.952.77c.492.585,1.346-.239.86-.822a4.063,4.063,0,0,0-5.389-.986c-.66.388-.084,1.426.576,1.038" transform="translate(104.066 24.026)" fill="#4d2f20"/>
        <path id="Caminho_121" data-name="Caminho 121" d="M50.718,12.975a2.936,2.936,0,0,1,4.014-.33c.631.433,1.229-.6.6-1.025a4.069,4.069,0,0,0-5.456.511c-.527.553.307,1.4.838.844" transform="translate(111.078 24.143)" fill="#4d2f20"/>
        <path id="Caminho_122" data-name="Caminho 122" d="M49.983,12.485a5.94,5.94,0,0,1,.889,3.179c-.1,1.588-1.63,2.633-2.274,4.069-.883,1.976.6,2.694,2.785,2.807.527.026.624-.653.1-.679-4.887-.252-.078-3.839.184-5.919a6.276,6.276,0,0,0-.928-3.781c-.22-.385-.974-.061-.754.323" transform="translate(108.012 26.787)" fill="#56301b"/>
        <path id="Caminho_123" data-name="Caminho 123" d="M53.634,15.956s.932,2.985-1.585,3.584-3.429-2.057-3.429-2.057Z" transform="translate(108.64 35.653)" fill="#faffff"/>
        <path id="Caminho_124" data-name="Caminho 124" d="M55.64,16.572a2.3,2.3,0,1,1-2.064-2.523,2.3,2.3,0,0,1,2.064,2.523" transform="translate(114.051 31.366)" fill="#7b5138"/>
        <path id="Caminho_125" data-name="Caminho 125" d="M46.859,15.177a2.333,2.333,0,1,1,.385,3.276,2.331,2.331,0,0,1-.385-3.276" transform="translate(103.581 31.929)" fill="#7b5138"/>
        <path id="Caminho_126" data-name="Caminho 126" d="M18.206,15.65H16.5v2.917h-2.52V9.178h4.224a3.67,3.67,0,0,1,1.3.23,3.526,3.526,0,0,1,1.1.64,3.125,3.125,0,0,1,.763.993,2.882,2.882,0,0,1,.281,1.271,3.07,3.07,0,0,1-.281,1.307,3.513,3.513,0,0,1-.763,1.058,3.6,3.6,0,0,1-1.1.715,3.309,3.309,0,0,1-1.3.259m-.181-4.379H16.56v2.034h1.465a1.106,1.106,0,0,0,.75-.3,1.06,1.06,0,0,0,.23-.32.968.968,0,0,0,.084-.4.942.942,0,0,0-.084-.4.986.986,0,0,0-.23-.32,1.067,1.067,0,0,0-.75-.3" transform="translate(31.242 20.508)" fill="#f2eff4"/>
        <path id="Caminho_127" data-name="Caminho 127" d="M16.676,18.568V9.178h2.6v7.067h4.939v2.322Z" transform="translate(37.261 20.508)" fill="#f2eff4"/>
        <path id="Caminho_128" data-name="Caminho 128" d="M25.713,18.571l-.485-1.3H22.336l-.485,1.3H19.2l3.474-9.393h2.212l3.474,9.393ZM23.788,12.6l-.75,2.481h1.488Z" transform="translate(42.906 20.508)" fill="#f2eff4"/>
        <path id="Caminho_129" data-name="Caminho 129" d="M26.914,19.044a4.812,4.812,0,0,1-1.944-.395A4.966,4.966,0,0,1,23.4,17.572a5.1,5.1,0,0,1-1.058-1.585,4.933,4.933,0,0,1,0-3.836A5.1,5.1,0,0,1,23.4,10.567,4.966,4.966,0,0,1,24.97,9.49,4.812,4.812,0,0,1,26.914,9.1a4.879,4.879,0,0,1,1.815.346,5.4,5.4,0,0,1,1.611,1L28.4,12.135a2.5,2.5,0,0,0-1.475-.5,2.3,2.3,0,0,0-.944.194,2.268,2.268,0,0,0-.75.534,2.57,2.57,0,0,0-.5.78,2.43,2.43,0,0,0-.181.925,2.471,2.471,0,0,0,.181.938,2.554,2.554,0,0,0,.5.776,2.417,2.417,0,0,0,.744.53,2.208,2.208,0,0,0,.938.2A2.276,2.276,0,0,0,28,16.25a2.755,2.755,0,0,0,.877-.75l2,1.62A5.287,5.287,0,0,1,29.1,18.543a4.9,4.9,0,0,1-2.183.5" transform="translate(49.05 20.322)" fill="#f2eff4"/>
        <path id="Caminho_130" data-name="Caminho 130" d="M31.317,18.571l-.482-1.3H27.94l-.485,1.3H24.806L28.28,9.178h2.212l3.477,9.393ZM29.4,12.6l-.75,2.481H30.13Z" transform="translate(55.427 20.508)" fill="#f2eff4"/>
        <path id="Caminho_131" data-name="Caminho 131" d="M40.17,8.6a.257.257,0,0,1,.184.084.248.248,0,0,1,.081.171V10.11H41.7a.283.283,0,0,1,.184.068.266.266,0,0,1,.078.2v1.4a.23.23,0,0,1-.094.191.3.3,0,0,1-.178.074H40.435v1.271a.244.244,0,0,1-.071.178.264.264,0,0,1-.2.074h-1.4a.251.251,0,0,1-.2-.087.272.272,0,0,1-.074-.175V12.048H37.208a.37.37,0,0,1-.152-.065.224.224,0,0,1-.1-.2v-1.41a.233.233,0,0,1,.094-.188.279.279,0,0,1,.171-.074h1.271V8.849a.29.29,0,0,1,.065-.146.229.229,0,0,1,.207-.1Z" transform="translate(82.567 19.223)" fill="#f2eff4"/>
        <path id="Caminho_132" data-name="Caminho 132" d="M34.919,9.287,32.681,13,30.452,9.287a.252.252,0,0,0-.2-.11h-2.3V18.57H30.4V13.741l2.012,3.315a.175.175,0,0,0,.12.1.578.578,0,0,0,.158.026.533.533,0,0,0,.142-.026.188.188,0,0,0,.123-.1l2.009-3.315V18.57h2.458V9.177H35.113a.245.245,0,0,0-.194.11" transform="translate(62.45 20.505)" fill="#f37820"/>
        <path id="Caminho_133" data-name="Caminho 133" d="M34.66,9.178l-3.474,9.393h2.649l.485-1.3h2.892l.485,1.3h2.649L36.872,9.178Zm.362,5.906.75-2.481.737,2.481Z" transform="translate(69.683 20.508)" fill="#f37820"/>
        <rect id="Retângulo_254" data-name="Retângulo 254" width="2.529" height="9.39" transform="translate(110.805 29.686)" fill="#f37820"/>
        <path id="Caminho_134" data-name="Caminho 134" d="M43.474,15.341a2.144,2.144,0,0,0-.181-.6,2.013,2.013,0,0,0-.459-.647,3.154,3.154,0,0,0-.66-.469,4.761,4.761,0,0,0-.786-.34c-.278-.094-.556-.175-.831-.249s-.553-.133-.809-.188-.5-.107-.715-.162a3.18,3.18,0,0,1-.55-.188.683.683,0,0,1-.311-.236.551.551,0,0,1-.071-.288.581.581,0,0,1,.107-.369.7.7,0,0,1,.278-.213,1.23,1.23,0,0,1,.372-.091c.133-.01.259-.016.378-.016a5.152,5.152,0,0,1,.64.042.971.971,0,0,1-.239-.644V9.273a1.031,1.031,0,0,1,.019-.175l-.045,0a7.456,7.456,0,0,0-1.135.087,4.771,4.771,0,0,0-1.084.288,3.357,3.357,0,0,0-.938.569,2.738,2.738,0,0,0-.689.922,2.553,2.553,0,0,0-.2.585,2.855,2.855,0,0,0-.068.611,2.727,2.727,0,0,0,.311,1.4,2.345,2.345,0,0,0,.828.841,3,3,0,0,0,.55.272c.2.078.408.149.624.213s.427.12.653.168.456.1.689.158c.178.039.356.078.534.11a2.969,2.969,0,0,1,.521.146,1.649,1.649,0,0,1,.459.233.815.815,0,0,1,.181.184.4.4,0,0,1,.074.236.647.647,0,0,1-.129.427.735.735,0,0,1-.32.226,1.584,1.584,0,0,1-.43.091c-.155.01-.3.016-.44.016a5.4,5.4,0,0,1-1.4-.175,6.877,6.877,0,0,1-1.313-.5,1.871,1.871,0,0,0-.3-.146c-.049.087-.133.233-.256.437s-.249.414-.385.64c-.065.113-.129.223-.194.333s-.123.2-.171.291-.087.155-.12.21a.457.457,0,0,0-.049.1c0,.016.032.045.1.084a.424.424,0,0,0,.12.049,9.321,9.321,0,0,0,1.776.624,7.924,7.924,0,0,0,1.87.223,8.368,8.368,0,0,0,1.523-.139,4.343,4.343,0,0,0,1.368-.482,2.751,2.751,0,0,0,.98-.938,2.788,2.788,0,0,0,.375-1.51,4.216,4.216,0,0,0-.049-.634" transform="translate(79.13 20.322)" fill="#f37820"/>
      </g>
    </g>
  </g>
</svg>
