<svg xmlns="http://www.w3.org/2000/svg" xmlns:xlink="http://www.w3.org/1999/xlink" width="326" height="242.999" viewBox="0 0 326 242.999">
  <defs>
    <clipPath id="clip-path">
      <rect id="Retângulo_330" data-name="Retângulo 330" width="280.245" height="176.965" fill="none"/>
    </clipPath>
  </defs>
  <g id="Grupo_183" data-name="Grupo 183" transform="translate(-991 -2402)">
    <text id="_3" data-name="3" transform="translate(1037 2538)" fill="none" stroke="#3d246a" stroke-width="4" font-size="136" font-family="Montserrat-ExtraBoldItalic, Montserrat" font-weight="800" font-style="italic"><tspan x="-41" y="0">3</tspan></text>
    <g id="Grupo_164" data-name="Grupo 164" transform="translate(1036.755 2468.034)">
      <g id="Grupo_163" data-name="Grupo 163" transform="translate(0 0)">
        <g id="Grupo_162" data-name="Grupo 162" clip-path="url(#clip-path)">
          <path id="Caminho_187" data-name="Caminho 187" d="M191.58,143.505c-31,31.876-93.041,42.289-138.771,25.535S-6.873,93.74,3,51.465c8.872-37.972,69.057-77.7,106.18-28.664,30.084,39.738,46.633,18.355,57.781,12.028C208.763,11.1,260,73.146,191.58,143.505" transform="translate(0.001 0)" fill="#ededed"/>
          <path id="Caminho_188" data-name="Caminho 188" d="M63.433,31.635s11.3,1.662,15.921-1.7,2.558-7.721,2.558-7.721-14.733,4.982-21,3.5,2.524,5.925,2.524,5.925" transform="translate(138.235 52.351)" fill="#ba896f"/>
          <path id="Caminho_189" data-name="Caminho 189" d="M81.464,25.75C82.713,34.3,64.8,34.488,64.8,34.488l-3.038-8.909s18.483-8.164,19.7.171" transform="translate(145.572 51.854)" fill="#d3841c"/>
          <path id="Caminho_190" data-name="Caminho 190" d="M66.323,30c-.2,0-.775-1.094-.883-1.249a20.023,20.023,0,0,1-2.793-4.156,4.765,4.765,0,0,1-.322-2.42,6.828,6.828,0,0,1,.42-1.437c.074-.181.141-.41.013-.537a.378.378,0,0,0-.457.013c-.369.225-.53.675-.782,1.034-.158.225-.453.608-.738.655-.269.047-.537-.2-.688-.376a7.2,7.2,0,0,1-1.1-1.944c-.235-.557-.389-1.259-1.165-.96a2.194,2.194,0,0,1-.806.074.563.563,0,0,0-.386.131.944.944,0,0,0-.117.161,1.254,1.254,0,0,1-.312.312.9.9,0,0,0-.235.181.435.435,0,0,0-.074.349,7.1,7.1,0,0,0,.2.879c.1.332.151.692.279,1.017.1.269.255.493.356.765a33.271,33.271,0,0,0,1.9,3.659,22.889,22.889,0,0,0,2.649,3.182c.634.564,5.049.665,5.049.665" transform="translate(131.717 43.72)" fill="#ba896f"/>
          <path id="Caminho_191" data-name="Caminho 191" d="M66.861,34.674C62.826,32.237,56.7,21.052,56.7,21.052l3.827-.339L70.778,31.381s.121,5.727-3.917,3.293" transform="translate(133.639 48.818)" fill="#ba896f"/>
          <path id="Caminho_192" data-name="Caminho 192" d="M81.585,45.5s.863,1.41,2.081,3.122,2.588,3.1,3.8,1.41-.047-4.4-.943-5.394-.571-1.8-1.037-2.981c-.473-1.2-3.259-1.292-3.259-1.292Z" transform="translate(192.282 95.144)" fill="#f99d1c"/>
          <path id="Caminho_193" data-name="Caminho 193" d="M82.679,40.854c.5,1.259.148,2.115,1.1,3.172s2.289,3.941,1,5.737a2.01,2.01,0,0,1-.782.7,1.392,1.392,0,0,0,1.43-.742c1.212-1.688-.044-4.4-.94-5.391s-.571-1.8-1.037-2.984a1.707,1.707,0,0,0-1.007-.846,1.146,1.146,0,0,1,.232.352" transform="translate(194.313 95.457)" fill="#e8a32b"/>
          <path id="Caminho_194" data-name="Caminho 194" d="M120.823,63.371c1.46,3.417-1.047,6.7-1.047,6.7C110.1,69.8,88.749,69.2,84.993,66.95c-6.375-3.817-17.57-14.713-17.57-14.713l-1.947-21.87,15.858,3.605L91.6,54.58Z" transform="translate(154.316 71.571)" fill="#614dd4"/>
          <path id="Caminho_195" data-name="Caminho 195" d="M70.607,32.666A78.589,78.589,0,0,0,73.779,42.8a28.868,28.868,0,0,0,4.314,8.167c1.735,2.058,3.763,2.622,6.247,3.31,8.765,2.424,17.633,4.515,26.482,6.616.42.1.242.745-.178.645-9.624-2.286-19.728-4.065-29.063-7.355-7.422-2.615-9.993-14.542-11.618-21.339-.1-.42.544-.6.645-.178" transform="translate(164.864 76.425)" fill="#1e1240"/>
          <path id="Caminho_196" data-name="Caminho 196" d="M70.046,32.672c-.047,2.393.225,7.862,3.535,7.855a.336.336,0,0,1,0,.671c-3.833.007-4.256-5.717-4.2-8.526a.334.334,0,0,1,.668,0" transform="translate(163.502 76.241)" fill="#1e1240"/>
          <path id="Caminho_197" data-name="Caminho 197" d="M69.977,49.791s-1.719.9-3.817,2.182-3.833,2.773-1.957,4.32,5.146.305,6.381-.661,2.148-.52,3.568-.97c1.44-.453,1.776-3.7,1.776-3.7Z" transform="translate(149.429 117.35)" fill="#f99d1c"/>
          <path id="Caminho_198" data-name="Caminho 198" d="M74.792,51.154c-1.511.477-2.484,0-3.8,1.031s-4.79,2.356-6.787.7a2.379,2.379,0,0,1-.755-.97,1.632,1.632,0,0,0,.749,1.732c1.88,1.551,5.146.305,6.381-.661s2.148-.524,3.568-.97a2.007,2.007,0,0,0,1.071-1.108,1.362,1.362,0,0,1-.43.242" transform="translate(149.43 119.992)" fill="#e8a32b"/>
          <path id="Caminho_199" data-name="Caminho 199" d="M83.028,102.033c-1.863,1.9-9.557.473-9.557.473C68.98,92.094,60.031,74.35,60.558,69.251c.9-8.654,7.056-29.785,7.056-29.785l19.8-11.453,3.682,13.065L76.59,71.953Z" transform="translate(142.671 66.02)" fill="#614dd4"/>
          <path id="Caminho_200" data-name="Caminho 200" d="M71.657,30.647c-2.1,4.659-3.988,9.429-5.65,14.253-2.155,6.25-4.538,12.88-2.383,19.278,3.7,11.01,7.006,22.172,10.376,33.29a.39.39,0,0,1-.742.238c-3.545-11.7-7.811-23.286-10.99-35.082-1.544-5.727,1.114-12.44,2.984-17.878,1.678-4.884,3.588-9.718,5.717-14.438.2-.453.893-.114.688.339" transform="translate(145.664 70.928)" fill="#1e1240"/>
          <path id="Caminho_201" data-name="Caminho 201" d="M67.267,32.057C66.451,38.3,66.71,45.219,69.345,51c.2.426-.443.8-.641.363-2.692-5.9-3.008-12.944-2.175-19.319.06-.463.8-.453.738.017" transform="translate(155.838 74.708)" fill="#1e1240"/>
          <path id="Caminho_202" data-name="Caminho 202" d="M68.8,31.874c.342,1.95,2.252,13.948-2.4,11.524-.42-.218-.04-.853.379-.631,3.018,1.571,1.571-9.181,1.3-10.712-.081-.467.634-.651.718-.181" transform="translate(156.066 74.478)" fill="#1e1240"/>
          <path id="Caminho_203" data-name="Caminho 203" d="M68.167,31.683a31.157,31.157,0,0,1-2.041,5.334c-.752,1.5-1.974,3.87-3.981,3.639-.5-.057-.332-.826.164-.769,1.887.218,3.179-3.263,3.746-4.6a32.461,32.461,0,0,0,1.343-3.77c.141-.483.91-.322.769.164" transform="translate(145.753 73.598)" fill="#1e1240"/>
          <path id="Caminho_204" data-name="Caminho 204" d="M64.783,25.948c1.715-5.492,11.564-3.827,18.288-2.81,4.532.685,7.09,2.759,6.865,11.041-.1,3.625.168,15.505-2.044,19.688,0,0-7.472,5.022-24.673-.309,0,0-2.1-15.871,1.564-27.61" transform="translate(147.583 52.046)" fill="#f99d1c"/>
          <path id="Caminho_205" data-name="Caminho 205" d="M89.206,35.074s-16.368,3.172-26.6-1.712l.7-2.6A51.446,51.446,0,0,0,88.947,32.08Z" transform="translate(147.544 72.49)" fill="#1e1240"/>
          <path id="Caminho_206" data-name="Caminho 206" d="M69.365,31.255H67.908l-.342,4.361h2.4Z" transform="translate(159.24 73.663)" fill="#614dd4"/>
          <path id="Caminho_207" data-name="Caminho 207" d="M67.082,31.336l-1.054-.329-1.806,4,2.169.678Z" transform="translate(151.359 73.079)" fill="#614dd4"/>
          <path id="Caminho_208" data-name="Caminho 208" d="M67.113,28.13a.446.446,0,0,0-.037.655.5.5,0,0,0,.685.037.446.446,0,0,0,.037-.655.5.5,0,0,0-.685-.037" transform="translate(157.791 66.02)" fill="#517dd8"/>
          <path id="Caminho_209" data-name="Caminho 209" d="M74.777,20.221s-6.922,1.487-6.536,2.054-.289,1.7-.309,2.806a6.251,6.251,0,0,1-1.883,3.672c-.745.846.581,1.86,1.762,2.081,5.082.953,8.291-.943,7.214-2.588-2.414-3.7-.248-8.026-.248-8.026" transform="translate(155.156 47.658)" fill="#ba896f"/>
          <path id="Caminho_210" data-name="Caminho 210" d="M66.749,25.164c.017-1.1.692-2.242.305-2.81s7.083-2.169,7.083-2.169a5.4,5.4,0,0,0-1.326,2.9,13.076,13.076,0,0,1-6.475,3.639,4.292,4.292,0,0,0,.413-1.564" transform="translate(156.342 47.576)" fill="#7c4930"/>
          <path id="Caminho_211" data-name="Caminho 211" d="M68.88,18.466c-2.722,2.058-5.049,9.167-2.2,12.555,1.564,1.86,7.261-.117,9.933-4.166a8.748,8.748,0,0,0-.225-6.821c-.638-1.487-4.679-3.706-7.513-1.568" transform="translate(154.088 41.434)" fill="#ba896f"/>
          <path id="Caminho_212" data-name="Caminho 212" d="M65.485,25.5c0,.436.611-4.3,3.276-4.622,1.081-.131.839,1.01,2.095,1.1,1.074.081,4.29-2.081,3.051,4.314-.057.305.232.668.373.943.178.339-.369,1.118-.359,1.5s1.114-.762,1.091-.4c-.034.557-1,2.111-.195,2.326.957.252,2.169-2.927,2.585-5.9.107-.765.752-3.743.8-4.384.1-1.37-6.62-3.421-9.57-3.417-1.742,0-1.255,2.39-1.84,3.874A12.65,12.65,0,0,0,65.485,25.5" transform="translate(154.337 39.994)" fill="#1e1240"/>
          <path id="Caminho_213" data-name="Caminho 213" d="M68.429,21.15s1.967-1.732,3.051-1.232-.44,3.454-2.679,3.045-.977-1.346-.373-1.813" transform="translate(159.15 46.73)" fill="#ba896f"/>
          <path id="Caminho_214" data-name="Caminho 214" d="M67.526,18.375a.918.918,0,1,1-.916-.916.915.915,0,0,1,.916.916" transform="translate(154.82 41.149)" fill="#1e1240"/>
          <path id="Caminho_215" data-name="Caminho 215" d="M69.229,18.34a1.722,1.722,0,1,1-1.722-1.722,1.723,1.723,0,0,1,1.722,1.722" transform="translate(155.044 39.167)" fill="#1e1240"/>
          <path id="Caminho_216" data-name="Caminho 216" d="M70.533,20.315a2.324,2.324,0,1,1,0-3.286,2.326,2.326,0,0,1,0,3.286" transform="translate(156.882 38.527)" fill="#1e1240"/>
          <path id="Caminho_217" data-name="Caminho 217" d="M71.007,18.4a1.641,1.641,0,1,1-1.642-1.641A1.642,1.642,0,0,1,71.007,18.4" transform="translate(159.614 39.487)" fill="#1e1240"/>
          <path id="Caminho_218" data-name="Caminho 218" d="M72.548,19.29A2.046,2.046,0,1,1,70.5,17.242a2.047,2.047,0,0,1,2.048,2.048" transform="translate(161.339 40.637)" fill="#1e1240"/>
          <path id="Caminho_219" data-name="Caminho 219" d="M71.778,19.62a1.484,1.484,0,1,1-1.484-1.484,1.484,1.484,0,0,1,1.484,1.484" transform="translate(162.176 42.744)" fill="#1e1240"/>
          <path id="Caminho_220" data-name="Caminho 220" d="M71.492,20.056a1.477,1.477,0,1,1-1.477-1.477,1.477,1.477,0,0,1,1.477,1.477" transform="translate(161.532 43.788)" fill="#1e1240"/>
          <path id="Caminho_221" data-name="Caminho 221" d="M67.255,18.79a.938.938,0,1,1-.937-.937.937.937,0,0,1,.937.937" transform="translate(154.087 42.077)" fill="#1e1240"/>
          <path id="Caminho_222" data-name="Caminho 222" d="M71.184,20.445A1.24,1.24,0,1,1,69.942,19.2a1.244,1.244,0,0,1,1.242,1.242" transform="translate(161.921 45.259)" fill="#1e1240"/>
          <path id="Caminho_223" data-name="Caminho 223" d="M68.238,20.276c.05-.027-.057.027-.077.034a1.126,1.126,0,0,1-.258.067c-.349.037-.514-.191-.6-.487-.054-.185-.346-.077-.289.107a.912.912,0,0,0,1.41.52c.175-.094-.01-.336-.185-.242" transform="translate(157.921 46.653)" fill="#201714"/>
          <path id="Caminho_224" data-name="Caminho 224" d="M67.284,19.785A1.066,1.066,0,0,1,67,19.98c-.339.154-.534-.054-.665-.356-.074-.178-.366-.07-.289.107.151.356.42.675.859.594a1.271,1.271,0,0,0,.624-.349c.141-.138-.1-.326-.242-.191" transform="translate(155.619 46.036)" fill="#201714"/>
          <path id="Caminho_225" data-name="Caminho 225" d="M66.381,19.421a.926.926,0,0,1,1.108.618c.087.225.423.06.336-.161a1.278,1.278,0,0,0-1.514-.822.186.186,0,0,0,.07.366" transform="translate(155.941 44.827)" fill="#4d2f20"/>
          <path id="Caminho_226" data-name="Caminho 226" d="M67.312,19.853a.924.924,0,0,1,1.232.3c.148.191.426-.057.282-.248a1.282,1.282,0,0,0-1.682-.383c-.211.114-.044.45.168.336" transform="translate(158.018 45.609)" fill="#4d2f20"/>
          <path id="Caminho_227" data-name="Caminho 227" d="M67.681,19.6a1.877,1.877,0,0,1-.047,1.037c-.185.467-.745.628-1.078.994-.46.5-.084.866.557,1.114.154.057.248-.134.094-.195-1.437-.554.356-1.155.638-1.752a2,2,0,0,0,.094-1.222c-.03-.134-.285-.114-.258.023" transform="translate(156.381 45.928)" fill="#7c4930"/>
          <path id="Caminho_228" data-name="Caminho 228" d="M68.445,20.711s-.02,1.286-1.078,1.2-1.078-1.242-1.078-1.242Z" transform="translate(156.234 48.702)" fill="#faffff"/>
          <path id="Caminho_229" data-name="Caminho 229" d="M68.511,21.35a.725.725,0,1,1-.369-.957.726.726,0,0,1,.369.957" transform="translate(158.199 47.919)" fill="#ad765e"/>
          <path id="Caminho_230" data-name="Caminho 230" d="M66.01,20.026a.735.735,0,1,1-.2,1.017.734.734,0,0,1,.2-1.017" transform="translate(154.802 46.91)" fill="#ad765e"/>
          <path id="Caminho_231" data-name="Caminho 231" d="M5.279,125.012a7.471,7.471,0,0,0,7.469,7.482h164.2a7.478,7.478,0,0,0,7.482-7.482V22.044a7.476,7.476,0,0,0-7.482-7.482H12.748a7.469,7.469,0,0,0-7.469,7.482Z" transform="translate(12.442 34.321)" fill="#d3d5fd"/>
          <path id="Caminho_232" data-name="Caminho 232" d="M7.434,125.012a7.471,7.471,0,0,0,7.469,7.482H179.109a7.478,7.478,0,0,0,7.479-7.482V22.044a7.475,7.475,0,0,0-7.479-7.482H14.9a7.469,7.469,0,0,0-7.469,7.482Z" transform="translate(17.521 34.321)" fill="#efeefe"/>
          <rect id="Retângulo_264" data-name="Retângulo 264" width="84.706" height="13.474" transform="translate(112.158 137.697)" fill="#fff"/>
          <path id="Caminho_233" data-name="Caminho 233" d="M12.748,14.562H176.954a7.478,7.478,0,0,1,7.479,7.482V46H5.279V22.044a7.471,7.471,0,0,1,7.469-7.482" transform="translate(12.442 34.321)" fill="#3e246a"/>
          <path id="Caminho_234" data-name="Caminho 234" d="M55.514,23.243a3.149,3.149,0,1,0,3.152-3.152,3.148,3.148,0,0,0-3.152,3.152" transform="translate(130.837 47.352)" fill="#fff"/>
          <path id="Caminho_235" data-name="Caminho 235" d="M53.145,23.243A3.152,3.152,0,1,0,56.3,20.091a3.153,3.153,0,0,0-3.155,3.152" transform="translate(125.254 47.352)" fill="#fff"/>
          <path id="Caminho_236" data-name="Caminho 236" d="M47.756,20.375a3.713,3.713,0,1,0,3.716-3.716,3.711,3.711,0,0,0-3.716,3.716" transform="translate(112.553 39.263)" fill="#fff"/>
          <path id="Caminho_237" data-name="Caminho 237" d="M14.9,14.562H179.109a7.478,7.478,0,0,1,7.479,7.482V46H7.434V22.044A7.471,7.471,0,0,1,14.9,14.562" transform="translate(17.521 34.321)" fill="#5b2d90"/>
          <path id="Caminho_238" data-name="Caminho 238" d="M58.421,51.5A24.32,24.32,0,1,1,34.1,27.182,24.322,24.322,0,0,1,58.421,51.5" transform="translate(23.052 64.064)" fill="#fff"/>
          <path id="Caminho_239" data-name="Caminho 239" d="M28.468,36.72A6.722,6.722,0,1,1,21.748,30a6.719,6.719,0,0,1,6.72,6.72" transform="translate(35.409 70.706)" fill="#1e1240"/>
          <path id="Caminho_240" data-name="Caminho 240" d="M26.444,34.165A13.762,13.762,0,0,0,13.03,44.877H39.858A13.762,13.762,0,0,0,26.444,34.165" transform="translate(30.709 80.522)" fill="#1e1240"/>
          <rect id="Retângulo_265" data-name="Retângulo 265" width="101.658" height="2.642" transform="translate(90.846 93.545)" fill="#bcb4fa"/>
          <rect id="Retângulo_266" data-name="Retângulo 266" width="101.658" height="2.642" transform="translate(90.846 100.258)" fill="#bcb4fa"/>
          <rect id="Retângulo_267" data-name="Retângulo 267" width="101.658" height="2.642" transform="translate(90.846 106.972)" fill="#bcb4fa"/>
          <path id="Caminho_241" data-name="Caminho 241" d="M41.978,29.162H15.238a6.141,6.141,0,0,1,0-12.283h26.74a6.141,6.141,0,1,1,0,12.283" transform="translate(21.442 39.782)" fill="#fff"/>
          <rect id="Retângulo_268" data-name="Retângulo 268" width="24.898" height="8.671" transform="translate(35.498 146.029)" fill="#fff"/>
          <rect id="Retângulo_269" data-name="Retângulo 269" width="16.096" height="8.671" transform="translate(64.031 146.029)" fill="#fff"/>
          <rect id="Retângulo_270" data-name="Retângulo 270" width="0.759" height="11.923" transform="translate(93.32 140.567)" fill="#bcb4fa"/>
          <rect id="Retângulo_271" data-name="Retângulo 271" width="0.759" height="11.923" transform="translate(95.592 140.567)" fill="#bcb4fa"/>
          <rect id="Retângulo_272" data-name="Retângulo 272" width="0.759" height="11.923" transform="translate(96.727 140.567)" fill="#bcb4fa"/>
          <rect id="Retângulo_273" data-name="Retângulo 273" width="0.759" height="11.923" transform="translate(97.865 140.567)" fill="#bcb4fa"/>
          <rect id="Retângulo_274" data-name="Retângulo 274" width="0.759" height="11.923" transform="translate(99.852 140.567)" fill="#bcb4fa"/>
          <rect id="Retângulo_275" data-name="Retângulo 275" width="0.759" height="11.923" transform="translate(112.162 140.567)" fill="#bcb4fa"/>
          <rect id="Retângulo_276" data-name="Retângulo 276" width="0.759" height="11.923" transform="translate(114.434 140.567)" fill="#bcb4fa"/>
          <rect id="Retângulo_277" data-name="Retângulo 277" width="0.759" height="11.923" transform="translate(115.569 140.567)" fill="#bcb4fa"/>
          <rect id="Retângulo_278" data-name="Retângulo 278" width="0.759" height="11.923" transform="translate(116.707 140.567)" fill="#bcb4fa"/>
          <rect id="Retângulo_279" data-name="Retângulo 279" width="0.759" height="11.923" transform="translate(118.694 140.567)" fill="#bcb4fa"/>
          <rect id="Retângulo_280" data-name="Retângulo 280" width="0.759" height="11.923" transform="translate(119.973 140.567)" fill="#bcb4fa"/>
          <rect id="Retângulo_281" data-name="Retângulo 281" width="0.759" height="11.923" transform="translate(121.108 140.567)" fill="#bcb4fa"/>
          <rect id="Retângulo_282" data-name="Retângulo 282" width="0.759" height="11.923" transform="translate(123.098 140.567)" fill="#bcb4fa"/>
          <rect id="Retângulo_283" data-name="Retângulo 283" width="0.759" height="11.923" transform="translate(124.374 140.567)" fill="#bcb4fa"/>
          <rect id="Retângulo_284" data-name="Retângulo 284" width="0.759" height="11.923" transform="translate(126.364 140.567)" fill="#bcb4fa"/>
          <rect id="Retângulo_285" data-name="Retângulo 285" width="0.759" height="11.923" transform="translate(129.013 140.567)" fill="#bcb4fa"/>
          <rect id="Retângulo_286" data-name="Retângulo 286" width="0.759" height="11.923" transform="translate(130.151 140.567)" fill="#bcb4fa"/>
          <rect id="Retângulo_287" data-name="Retângulo 287" width="0.759" height="11.923" transform="translate(132.138 140.567)" fill="#bcb4fa"/>
          <rect id="Retângulo_288" data-name="Retângulo 288" width="0.759" height="11.923" transform="translate(133.417 140.567)" fill="#bcb4fa"/>
          <rect id="Retângulo_289" data-name="Retângulo 289" width="0.759" height="11.923" transform="translate(135.404 140.567)" fill="#bcb4fa"/>
          <rect id="Retângulo_290" data-name="Retângulo 290" width="0.759" height="11.923" transform="translate(137.395 140.567)" fill="#bcb4fa"/>
          <rect id="Retângulo_291" data-name="Retângulo 291" width="0.759" height="11.923" transform="translate(139.382 140.567)" fill="#bcb4fa"/>
          <rect id="Retângulo_292" data-name="Retângulo 292" width="0.759" height="11.923" transform="translate(102.125 140.567)" fill="#bcb4fa"/>
          <rect id="Retângulo_293" data-name="Retângulo 293" width="0.759" height="11.923" transform="translate(103.263 140.567)" fill="#bcb4fa"/>
          <rect id="Retângulo_294" data-name="Retângulo 294" width="0.759" height="11.923" transform="translate(104.397 140.567)" fill="#bcb4fa"/>
          <rect id="Retângulo_295" data-name="Retângulo 295" width="0.759" height="11.923" transform="translate(106.15 140.567)" fill="#bcb4fa"/>
          <rect id="Retângulo_296" data-name="Retângulo 296" width="0.759" height="11.923" transform="translate(108.422 140.567)" fill="#bcb4fa"/>
          <rect id="Retângulo_297" data-name="Retângulo 297" width="0.759" height="11.923" transform="translate(109.557 140.567)" fill="#bcb4fa"/>
          <rect id="Retângulo_298" data-name="Retângulo 298" width="0.759" height="11.923" transform="translate(110.695 140.567)" fill="#bcb4fa"/>
          <rect id="Retângulo_299" data-name="Retângulo 299" width="0.759" height="11.923" transform="translate(141.883 140.792)" fill="#bcb4fa"/>
          <rect id="Retângulo_300" data-name="Retângulo 300" width="0.759" height="11.923" transform="translate(144.156 140.792)" fill="#bcb4fa"/>
          <rect id="Retângulo_301" data-name="Retângulo 301" width="0.759" height="11.923" transform="translate(145.293 140.792)" fill="#bcb4fa"/>
          <rect id="Retângulo_302" data-name="Retângulo 302" width="0.759" height="11.923" transform="translate(146.428 140.792)" fill="#bcb4fa"/>
          <rect id="Retângulo_303" data-name="Retângulo 303" width="0.759" height="11.923" transform="translate(148.415 140.792)" fill="#bcb4fa"/>
          <rect id="Retângulo_304" data-name="Retângulo 304" width="0.759" height="11.923" transform="translate(160.725 140.792)" fill="#bcb4fa"/>
          <rect id="Retângulo_305" data-name="Retângulo 305" width="0.759" height="11.923" transform="translate(162.997 140.792)" fill="#bcb4fa"/>
          <rect id="Retângulo_306" data-name="Retângulo 306" width="0.759" height="11.923" transform="translate(164.135 140.792)" fill="#bcb4fa"/>
          <rect id="Retângulo_307" data-name="Retângulo 307" width="0.759" height="11.923" transform="translate(165.27 140.792)" fill="#bcb4fa"/>
          <rect id="Retângulo_308" data-name="Retângulo 308" width="0.759" height="11.923" transform="translate(167.257 140.792)" fill="#bcb4fa"/>
          <rect id="Retângulo_309" data-name="Retângulo 309" width="0.759" height="11.923" transform="translate(168.536 140.792)" fill="#bcb4fa"/>
          <rect id="Retângulo_310" data-name="Retângulo 310" width="0.759" height="11.923" transform="translate(169.674 140.792)" fill="#bcb4fa"/>
          <rect id="Retângulo_311" data-name="Retângulo 311" width="0.759" height="11.923" transform="translate(171.661 140.792)" fill="#bcb4fa"/>
          <rect id="Retângulo_312" data-name="Retângulo 312" width="0.759" height="11.923" transform="translate(172.94 140.792)" fill="#bcb4fa"/>
          <rect id="Retângulo_313" data-name="Retângulo 313" width="0.759" height="11.923" transform="translate(174.928 140.792)" fill="#bcb4fa"/>
          <rect id="Retângulo_314" data-name="Retângulo 314" width="0.759" height="11.923" transform="translate(177.579 140.792)" fill="#bcb4fa"/>
          <rect id="Retângulo_315" data-name="Retângulo 315" width="0.759" height="11.923" transform="translate(178.714 140.792)" fill="#bcb4fa"/>
          <rect id="Retângulo_316" data-name="Retângulo 316" width="0.759" height="11.923" transform="translate(180.701 140.792)" fill="#bcb4fa"/>
          <rect id="Retângulo_317" data-name="Retângulo 317" width="0.759" height="11.923" transform="translate(181.98 140.792)" fill="#bcb4fa"/>
          <rect id="Retângulo_318" data-name="Retângulo 318" width="0.759" height="11.923" transform="translate(183.971 140.792)" fill="#bcb4fa"/>
          <rect id="Retângulo_319" data-name="Retângulo 319" width="0.759" height="11.923" transform="translate(185.958 140.792)" fill="#bcb4fa"/>
          <rect id="Retângulo_320" data-name="Retângulo 320" width="0.759" height="11.923" transform="translate(187.945 140.792)" fill="#bcb4fa"/>
          <rect id="Retângulo_321" data-name="Retângulo 321" width="0.759" height="11.923" transform="translate(150.688 140.792)" fill="#bcb4fa"/>
          <rect id="Retângulo_322" data-name="Retângulo 322" width="0.759" height="11.923" transform="translate(151.826 140.792)" fill="#bcb4fa"/>
          <rect id="Retângulo_323" data-name="Retângulo 323" width="0.759" height="11.923" transform="translate(152.96 140.792)" fill="#bcb4fa"/>
          <rect id="Retângulo_324" data-name="Retângulo 324" width="0.759" height="11.923" transform="translate(154.713 140.792)" fill="#bcb4fa"/>
          <rect id="Retângulo_325" data-name="Retângulo 325" width="0.759" height="11.923" transform="translate(156.985 140.792)" fill="#bcb4fa"/>
          <rect id="Retângulo_326" data-name="Retângulo 326" width="0.759" height="11.923" transform="translate(158.123 140.792)" fill="#bcb4fa"/>
          <rect id="Retângulo_327" data-name="Retângulo 327" width="0.759" height="11.923" transform="translate(159.258 140.792)" fill="#bcb4fa"/>
          <rect id="Retângulo_328" data-name="Retângulo 328" width="63.34" height="21.819" transform="translate(90.812 111.672)" fill="#bcb4fa"/>
          <rect id="Retângulo_329" data-name="Retângulo 329" width="31.641" height="21.819" transform="translate(160.396 111.672)" fill="#bcb4fa"/>
          <path id="Caminho_242" data-name="Caminho 242" d="M71.352,43.23s9.56-6.244,10.8-11.826-3.2-7.479-3.2-7.479-7.731,13.5-13.411,16.542,5.817,2.763,5.817,2.763" transform="translate(150.739 56.388)" fill="#ba896f"/>
          <path id="Caminho_243" data-name="Caminho 243" d="M81,23.95c6.6,5.572-6.683,17.583-6.683,17.583l-8.181-4.656S74.561,18.515,81,23.95" transform="translate(155.862 54.077)" fill="#d3841c"/>
          <path id="Caminho_244" data-name="Caminho 244" d="M73.661,31.594c-.154.131-1.306-.305-1.49-.349a20.16,20.16,0,0,1-4.844-1.262,4.74,4.74,0,0,1-1.843-1.6,6.694,6.694,0,0,1-.641-1.356c-.067-.185-.164-.4-.346-.41-.158-.013-.282.148-.332.312a3.215,3.215,0,0,0,.1,1.292,1.522,1.522,0,0,1-.117.98.874.874,0,0,1-.765.175,7.194,7.194,0,0,1-2.111-.725c-.547-.262-1.128-.685-1.507.054a2.164,2.164,0,0,1-.557.587.564.564,0,0,0-.2.352,1.357,1.357,0,0,0,.017.2,1.139,1.139,0,0,1-.027.44.975.975,0,0,0-.054.292.439.439,0,0,0,.178.312,7.02,7.02,0,0,0,.728.524c.3.185.571.42.883.577.255.134.52.2.775.339a33.281,33.281,0,0,0,3.847,1.484,22.914,22.914,0,0,0,4.089.628c.849,0,4.223-2.85,4.223-2.85" transform="translate(138.904 62.737)" fill="#ba896f"/>
          <path id="Caminho_245" data-name="Caminho 245" d="M77.483,34.189c-4.636.849-16.636-3.468-16.636-3.468l2.642-2.79,14.743,1.2s3.887,4.209-.749,5.062" transform="translate(143.406 65.832)" fill="#ba896f"/>
        </g>
      </g>
      <text id="Pagamento" transform="translate(86.83 68.249)" fill="#efeefe" font-size="19" font-family="MyriadPro-Regular, Myriad Pro"><tspan x="0" y="0" letter-spacing="-0.026em">P</tspan><tspan y="0">agame</tspan><tspan y="0" letter-spacing="-0.004em">n</tspan><tspan y="0" letter-spacing="-0.005em">t</tspan><tspan y="0">o</tspan></text>
    </g>
  </g>
</svg>
