<svg xmlns="http://www.w3.org/2000/svg" xmlns:xlink="http://www.w3.org/1999/xlink" width="257.666" height="246.634" viewBox="0 0 257.666 246.634">
  <defs>
    <clipPath id="clip-path">
      <rect id="Retângulo_263" data-name="Retângulo 263" width="240.666" height="152.869" fill="none"/>
    </clipPath>
    <clipPath id="clip-path-3">
      <rect id="Retângulo_261" data-name="Retângulo 261" width="20.696" height="68.885" fill="none"/>
    </clipPath>
  </defs>
  <g id="Grupo_182" data-name="Grupo 182" transform="translate(-678 -2402)">
    <text id="_2" data-name="2" transform="translate(723 2538)" fill="none" stroke="#3d246a" stroke-width="4" font-size="136" font-family="Montserrat-ExtraBoldItalic, Montserrat" font-weight="800" font-style="italic"><tspan x="-40" y="0">2</tspan></text>
    <g id="Grupo_161" data-name="Grupo 161" transform="translate(695 2495.765)">
      <g id="Grupo_160" data-name="Grupo 160" clip-path="url(#clip-path)">
        <g id="Grupo_159" data-name="Grupo 159" transform="translate(0 0)">
          <g id="Grupo_158" data-name="Grupo 158" clip-path="url(#clip-path)">
            <path id="Caminho_135" data-name="Caminho 135" d="M222.591,104.668c-19.486,41.128-70.684,31.4-113.249,30.958s-105.5,9.9-104.92-46.752C4.815,50.62,31.935.121,97.616,25.475c44.443,17.156,48.61-21.693,80.55-24.8,38.595-3.752,71.345,47.173,44.425,104" transform="translate(8.229 0.89)" fill="#ededed"/>
            <path id="Caminho_136" data-name="Caminho 136" d="M80.585,75.459l-43.69.22,5.919-5.012L36.9,57.73V35.375h43.69l1.028,26.3,7.067,7.582Z" transform="translate(68.71 65.878)" fill="#614dd4"/>
            <path id="Caminho_137" data-name="Caminho 137" d="M37.824,60.812h0a3.093,3.093,0,0,1-3.083-3.083V38.458a3.083,3.083,0,0,1,6.165,0V57.729a3.093,3.093,0,0,1-3.083,3.083" transform="translate(64.697 65.878)" fill="#302065"/>
            <path id="Caminho_138" data-name="Caminho 138" d="M53.966,61.43h0a3.091,3.091,0,0,1-4.359,0L35.579,46.689c-1.2-1.2-.8-2.047.4-3.246a3.091,3.091,0,0,1,4.359,0l13.456,13.1a3.773,3.773,0,0,1,.172,4.886" transform="translate(64.91 79.228)" fill="#302065"/>
            <path id="Caminho_139" data-name="Caminho 139" d="M65.034,53.635H30.861a3.211,3.211,0,1,1,0-6.423H65.034a3.211,3.211,0,1,1,0,6.423" transform="translate(51.492 87.922)" fill="#302065"/>
            <path id="Caminho_140" data-name="Caminho 140" d="M53.983,60.774h0A3.093,3.093,0,0,1,50.9,57.691V38.42a3.083,3.083,0,1,1,6.165,0V57.691a3.093,3.093,0,0,1-3.083,3.083" transform="translate(94.79 65.807)" fill="#614dd4"/>
            <path id="Caminho_141" data-name="Caminho 141" d="M69.978,61.391h0a3.091,3.091,0,0,1-4.359,0L51.991,47.763A3.082,3.082,0,0,1,56.35,43.4L69.978,56.891a3.263,3.263,0,0,1,0,4.5" transform="translate(95.147 79.155)" fill="#614dd4"/>
            <path id="Caminho_142" data-name="Caminho 142" d="M81.192,53.6H47.019a3.211,3.211,0,1,1,0-6.423H81.192a3.211,3.211,0,0,1,0,6.423" transform="translate(81.583 87.864)" fill="#614dd4"/>
            <path id="Retângulo_256" data-name="Retângulo 256" d="M2.6,0H168.69a2.6,2.6,0,0,1,2.6,2.6V110.678a2.6,2.6,0,0,1-2.6,2.6H2.6a2.6,2.6,0,0,1-2.6-2.6V2.6A2.6,2.6,0,0,1,2.6,0Z" transform="translate(38.286 -0.001)" fill="#302065"/>
            <path id="Retângulo_257" data-name="Retângulo 257" d="M2.6,0H168.69a2.6,2.6,0,0,1,2.6,2.6V110.678a2.6,2.6,0,0,1-2.6,2.6H2.6a2.6,2.6,0,0,1-2.6-2.6V2.6A2.6,2.6,0,0,1,2.6,0Z" transform="translate(44.194 -0.001)" fill="#614dd4"/>
            <rect id="Retângulo_258" data-name="Retângulo 258" width="160.27" height="80.424" transform="translate(49.231 5.722)" fill="#d3d5fd"/>
            <rect id="Retângulo_259" data-name="Retângulo 259" width="2.877" height="80.424" transform="translate(206.625 5.722)" fill="#bcb4fa"/>
            <path id="Caminho_143" data-name="Caminho 143" d="M22.882,51.687H179.3a7.442,7.442,0,0,0,7.433-7.451V33.071H15.44V44.237a7.445,7.445,0,0,0,7.442,7.451" transform="translate(28.754 61.587)" fill="#4e41c4"/>
            <path id="Caminho_144" data-name="Caminho 144" d="M21.8,88.216a5.685,5.685,0,0,0,5.682,5.693H152.407a5.691,5.691,0,0,0,5.693-5.693V9.878a5.689,5.689,0,0,0-5.693-5.69H27.486A5.683,5.683,0,0,0,21.8,9.878Z" transform="translate(40.605 7.799)" fill="#d4e6ed"/>
            <path id="Caminho_145" data-name="Caminho 145" d="M27.486,4.188H152.407a5.689,5.689,0,0,1,5.693,5.69V20.446H21.8V9.878a5.683,5.683,0,0,1,5.682-5.69" transform="translate(40.605 7.799)" fill="#bfd7f5"/>
            <path id="Caminho_146" data-name="Caminho 146" d="M64.6,8.887A2.827,2.827,0,1,0,67.43,6.059,2.825,2.825,0,0,0,64.6,8.887" transform="translate(120.307 11.283)" fill="#fff"/>
            <path id="Caminho_147" data-name="Caminho 147" d="M62.107,8.887a2.829,2.829,0,1,0,2.834-2.828,2.83,2.83,0,0,0-2.834,2.828" transform="translate(115.661 11.283)" fill="#fff"/>
            <path id="Caminho_148" data-name="Caminho 148" d="M59.7,8.887A2.824,2.824,0,1,0,62.53,6.059,2.825,2.825,0,0,0,59.7,8.887" transform="translate(111.182 11.283)" fill="#fff"/>
            <path id="Retângulo_260" data-name="Retângulo 260" d="M1.989,0H134.307A1.989,1.989,0,0,1,136.3,1.989V87.733a1.988,1.988,0,0,1-1.988,1.988H1.985A1.985,1.985,0,0,1,0,87.736V1.989A1.989,1.989,0,0,1,1.989,0Z" transform="translate(67.912 11.988)" fill="#fff"/>
            <path id="Caminho_149" data-name="Caminho 149" d="M29.409,4.188H154.33a5.689,5.689,0,0,1,5.693,5.69V20.446H23.727V9.878a5.683,5.683,0,0,1,5.682-5.69" transform="translate(44.186 7.799)" fill="#c9e1f9"/>
            <path id="Caminho_150" data-name="Caminho 150" d="M66.524,8.887a2.827,2.827,0,1,0,2.828-2.828,2.825,2.825,0,0,0-2.828,2.828" transform="translate(123.886 11.283)" fill="#fff"/>
            <path id="Caminho_151" data-name="Caminho 151" d="M64.03,8.887a2.829,2.829,0,1,0,2.834-2.828A2.83,2.83,0,0,0,64.03,8.887" transform="translate(119.242 11.283)" fill="#fff"/>
            <path id="Caminho_152" data-name="Caminho 152" d="M61.625,8.887a2.824,2.824,0,1,0,2.828-2.828,2.825,2.825,0,0,0-2.828,2.828" transform="translate(114.763 11.283)" fill="#fff"/>
            <path id="Caminho_153" data-name="Caminho 153" d="M42.99,21.658c0,4.388-3.835,7.946-8.561,7.946s-8.561-3.558-8.561-7.946,3.835-7.946,8.561-7.946,8.561,3.558,8.561,7.946" transform="translate(48.173 25.535)" fill="#ededed"/>
            <path id="Caminho_154" data-name="Caminho 154" d="M27.079,24.515,29.772,30.3a1.081,1.081,0,0,0,1.855,0q5.341-8.814,10.685-17.637a1.072,1.072,0,0,0-1.852-1.079L29.772,29.217h1.855q-1.348-2.894-2.693-5.785c-.584-1.254-2.436-.16-1.855,1.082" transform="translate(50.22 20.615)" fill="#f47820"/>
            <path id="Caminho_155" data-name="Caminho 155" d="M42.99,30.531c0,4.388-3.835,7.946-8.561,7.946s-8.561-3.558-8.561-7.946,3.835-7.946,8.561-7.946,8.561,3.558,8.561,7.946" transform="translate(48.173 42.059)" fill="#ededed"/>
            <path id="Caminho_156" data-name="Caminho 156" d="M27.079,33.39l2.693,5.785a1.083,1.083,0,0,0,1.855,0q5.341-8.819,10.685-17.637a1.073,1.073,0,0,0-1.852-1.082q-5.345,8.819-10.688,17.635h1.855Q30.279,35.2,28.933,32.3c-.584-1.251-2.436-.16-1.855,1.085" transform="translate(50.22 37.14)" fill="#f47820"/>
            <path id="Caminho_157" data-name="Caminho 157" d="M162.434,25.528H40.264a5.725,5.725,0,0,1,0-11.449H162.434a5.725,5.725,0,1,1,0,11.449" transform="translate(64.321 26.219)" fill="#bfd7f5"/>
            <path id="Caminho_158" data-name="Caminho 158" d="M162.434,32.528H40.264a5.725,5.725,0,0,1,0-11.449H162.434a5.725,5.725,0,1,1,0,11.449" transform="translate(64.321 39.255)" fill="#bfd7f5"/>
            <path id="Caminho_159" data-name="Caminho 159" d="M101.181,42.259H49.128A5.741,5.741,0,0,1,43.4,36.535V33.862a5.741,5.741,0,0,1,5.725-5.725h52.053a5.741,5.741,0,0,1,5.725,5.725v2.673a5.741,5.741,0,0,1-5.725,5.725" transform="translate(80.828 52.399)" fill="#f47820"/>
            <path id="Caminho_160" data-name="Caminho 160" d="M59.939,47.668H5.57A5.586,5.586,0,0,0,0,53.238a5.476,5.476,0,0,0,.166,1.288H65.343a5.476,5.476,0,0,0,.166-1.288,5.587,5.587,0,0,0-5.57-5.57" transform="translate(0 88.771)" fill="#e04b28"/>
            <path id="Caminho_161" data-name="Caminho 161" d="M37.241,53.238a5.587,5.587,0,0,0-5.57-5.57H15.181v6.855H37.075a5.452,5.452,0,0,0,.166-1.285" transform="translate(28.271 88.771)" fill="#cc3f23"/>
            <path id="Caminho_162" data-name="Caminho 162" d="M3.581,92.611,22.555,26.472c1.131-3.939,5.856-3.91,6.952.046l18.3,66.093Z" transform="translate(6.669 43.828)" fill="#f65b2c"/>
            <path id="Caminho_163" data-name="Caminho 163" d="M12.561,26.8l-4.6,16.043h19.6L23.12,26.8Z" transform="translate(14.821 49.917)" fill="#fcdfae"/>
            <path id="Caminho_164" data-name="Caminho 164" d="M9.7,36.769,5.1,52.812H40.787L36.345,36.769Z" transform="translate(9.497 68.474)" fill="#fcdfae"/>
            <g id="Grupo_157" data-name="Grupo 157" transform="translate(33.785 67.553)" style="mix-blend-mode: overlay;isolation: isolate">
              <g id="Grupo_156" data-name="Grupo 156">
                <g id="Grupo_155" data-name="Grupo 155" clip-path="url(#clip-path-3)">
                  <path id="Caminho_165" data-name="Caminho 165" d="M14.194,26.392A3.923,3.923,0,0,0,11.8,23.6L22.123,92.485H32.5Z" transform="translate(-11.803 -23.602)" fill="#54537c"/>
                </g>
              </g>
            </g>
            <path id="Caminho_166" data-name="Caminho 166" d="M82.907,39.929s-2.444-12.3-6.612-15.282-7.316-.212-7.316-.212,7.645,9.32,8.14,14.838,5.788.655,5.788.655" transform="translate(128.458 43.329)" fill="#e9b79c"/>
            <path id="Caminho_167" data-name="Caminho 167" d="M78.923,30.831c-.126.114-1.153-.146-1.317-.166a19.022,19.022,0,0,1-4.291-.635A4.057,4.057,0,0,1,71.608,28.9a4.921,4.921,0,0,1-.644-1.022c-.072-.14-.172-.3-.329-.3-.137,0-.235.137-.269.272a2.314,2.314,0,0,0,.175,1.013,1.134,1.134,0,0,1-.037.784.809.809,0,0,1-.653.192,6.649,6.649,0,0,1-1.881-.415c-.492-.166-1.028-.455-1.308.155a1.728,1.728,0,0,1-.441.5.438.438,0,0,0-.152.295.725.725,0,0,0,.029.157.845.845,0,0,1,.006.349.658.658,0,0,0-.026.235.342.342,0,0,0,.172.235,6.528,6.528,0,0,0,.67.358c.272.123.524.289.8.392.232.086.467.12.7.209a31.284,31.284,0,0,0,3.438.887,21.573,21.573,0,0,0,3.592.189c.738-.063,3.472-2.562,3.472-2.562" transform="translate(123.039 51.365)" fill="#e9b79c"/>
            <path id="Caminho_168" data-name="Caminho 168" d="M82.767,33.432c-3.967,1.013-14.675-1.506-14.675-1.506l2.107-2.4,13-1.265s3.538,4.15-.429,5.166" transform="translate(126.806 52.639)" fill="#e9b79c"/>
            <path id="Caminho_169" data-name="Caminho 169" d="M77.892,24.965s1.342,1,.5,1.694a1.073,1.073,0,0,1-1.5.029,1.052,1.052,0,0,1-.7,1.445.918.918,0,0,1-1.131-.564,1.024,1.024,0,0,1-.578,1.465c-.744.352-1.179-.6-1.179-.6s.661,1.013-.321,1.454-1.159-.956-1.159-.956.278,1.328-.638,1.64S70.4,29,70.4,29Z" transform="translate(131.098 46.492)" fill="#fbfcfb"/>
            <path id="Caminho_170" data-name="Caminho 170" d="M80.988,30.9s-5.421-11.091-10.276-8.716C65.223,24.874,73.383,35.6,73.383,35.6s5.793-1.56,7.605-4.7" transform="translate(128.15 40.701)" fill="#3e246a"/>
            <path id="Caminho_171" data-name="Caminho 171" d="M81.458,48.9s3.04,3.366,3.131,4.153c.272,2.353-5.933,7.436-8.945,7.9-.421.066-1.142-.255-1.013-1.428s3.065-4.757,1.706-6.074S81.458,48.9,81.458,48.9" transform="translate(138.957 91.069)" fill="#e8a32b"/>
            <path id="Caminho_172" data-name="Caminho 172" d="M72.659,28.761s7.765-.856,10.934,8.615c7.09,21.2,19.518,43.458,22.457,49.681a2.005,2.005,0,0,1-.077,1.846c-.942,1.66-3.518,4.889-9.8,6.223a2.577,2.577,0,0,1-2.845-1.374L63.182,33.942Z" transform="translate(117.662 53.523)" fill="#1e1240"/>
            <path id="Caminho_173" data-name="Caminho 173" d="M65.91,51.017s.664,4.259.341,4.937c-.967,2.018-8.315,2.865-10.88,1.68-.358-.166-.753-.793-.066-1.663s4.754-2.213,4.362-3.97,6.243-.985,6.243-.985" transform="translate(102.292 94.693)" fill="#e8a32b"/>
            <path id="Caminho_174" data-name="Caminho 174" d="M89.119,30.069s7.651,7.259,1.589,14.953C86.94,49.8,78.319,55.8,75.062,63.744c-5.046,12.3-4.087,26.968-5.435,31.2a2.106,2.106,0,0,1-2.061,1.486c-2.539-.069-7.619-.547-11.629-3.117a2.234,2.234,0,0,1-.839-2.725s3.357-27.246,6.921-35.426c3.108-7.136,17.789-24.229,17.789-24.229Z" transform="translate(102.291 55.997)" fill="#1e1240"/>
            <path id="Caminho_175" data-name="Caminho 175" d="M66.153,18.087C65.217,20.268,63.7,29.081,68.263,29.4c1.943.14,5.415-3.406,5.965-6.921.232-1.445-1.042-3.6-3.415-4.723-1.071-.509-3.6-2.21-4.66.326" transform="translate(121.309 31.155)" fill="#e9b79c"/>
            <path id="Caminho_176" data-name="Caminho 176" d="M65.892,21.352s2.587,3.131-.049,5.67S72.685,28.4,72.685,28.4l-1.008-9.228Z" transform="translate(121.759 35.701)" fill="#e9b79c"/>
            <path id="Caminho_177" data-name="Caminho 177" d="M69.362,22.209A22.73,22.73,0,0,1,82.975,23.27c6.54,2.7.432,13.189-.215,14.875-3.378,8.781,2.865,8.859,1.8,10.839-1.909,3.552-12.4,4.162-18.121,2.112-2.238-.8-4.142-2.081-3.575-3.071,4.013-7.047,1.451-11.584,1.686-16.255.238-4.791.5-8.564,4.811-9.563" transform="translate(116.884 40.272)" fill="#5b2d90"/>
            <path id="Caminho_178" data-name="Caminho 178" d="M68.351,33.221c-1.191,1.986-4.394,6.861-7.236,5.052-.384-.24-.077-.884.309-.641,2.359,1.5,5.284-3.045,6.286-4.72.235-.389.876-.086.641.309" transform="translate(113.484 60.954)" fill="#130c2d"/>
            <path id="Caminho_179" data-name="Caminho 179" d="M68.248,34.311a9.278,9.278,0,0,1-2.018,6.761c-.326.409.252,1,.581.581a10.069,10.069,0,0,0,2.258-7.342c-.066-.518-.887-.524-.821,0" transform="translate(123.159 63.169)" fill="#130c2d"/>
            <path id="Caminho_180" data-name="Caminho 180" d="M62.95,40.951s10.565-6.764,11.815-11.732-2.473-6.887-2.473-6.887S66.407,32.851,61.45,35.324s1.5,5.627,1.5,5.627" transform="translate(110.951 41.588)" fill="#e9b79c"/>
            <path id="Caminho_181" data-name="Caminho 181" d="M65.437,31.8c-.169.006-.781-.862-.893-.982A18.984,18.984,0,0,1,61.7,27.543a4.033,4.033,0,0,1-.567-1.966,5,5,0,0,1,.177-1.2c.037-.152.066-.341-.054-.441a.321.321,0,0,0-.381.031c-.283.2-.364.578-.53.882-.106.192-.306.518-.538.572s-.475-.143-.621-.278a6.679,6.679,0,0,1-1.156-1.54c-.266-.447-.484-1.016-1.093-.736a1.75,1.75,0,0,1-.664.1.435.435,0,0,0-.306.123.746.746,0,0,0-.08.137.856.856,0,0,1-.223.272.715.715,0,0,0-.175.16.35.35,0,0,0-.02.289,6.481,6.481,0,0,0,.275.71c.126.269.212.558.358.819.117.218.272.4.392.613A30.516,30.516,0,0,0,58.53,29a21.842,21.842,0,0,0,2.6,2.484c.6.432,4.3.315,4.3.315" transform="translate(103.266 42.454)" fill="#e9b79c"/>
            <path id="Caminho_182" data-name="Caminho 182" d="M66.687,35.953c-3.672-1.812-10.161-10.693-10.161-10.693l3.16-.452,10.691,7.5s-.014,5.45-3.689,3.641" transform="translate(105.267 46.197)" fill="#e9b79c"/>
            <path id="Caminho_183" data-name="Caminho 183" d="M69.365,30.136s-.435,1.614-1.4,1.079a1.072,1.072,0,0,1-.575-1.385,1.05,1.05,0,0,1-1.6-.126.916.916,0,0,1,.112-1.257,1.022,1.022,0,0,1-1.574-.006c-.6-.564.129-1.317.129-1.317s-.7.985-1.471.232.467-1.428.467-1.428-1.133.744-1.757,0,1.185-1.294,1.185-1.294Z" transform="translate(114.654 45.883)" fill="#fbfcfb"/>
            <path id="Caminho_184" data-name="Caminho 184" d="M68.914,35.5s8.349-9.1,4.365-12.749c-4.5-4.13-11.515,7.385-11.515,7.385s3.566,4.823,7.15,5.364" transform="translate(115.022 40.71)" fill="#3e246a"/>
            <path id="Caminho_185" data-name="Caminho 185" d="M70.352,15.955c-3.944,1.019-5.161,4.554-4.777,6.128.856,3.5-.879,5.939-.026,8.816,1.028,3.452,2.63,5.536,2.616,7.313-.017,2.075-2.7,6.248-2.192,8.261s3.08,2.645,3.555,5.733a5.384,5.384,0,0,0,3.438,4.445,8.631,8.631,0,0,0,6.752-.6,4.587,4.587,0,0,0,2.018-2.333,8.079,8.079,0,0,0,.052-3.4c-.192-1.906,1.46-3.793,1.752-5.687.312-2.029-1.523-4.122-1.365-6.168.24-3.077,1.182-5.7-.475-9-1.288-2.562-1.514-5.8-2.774-8.507-1.391-2.985-4-6.191-8.573-5.009" transform="translate(121.618 29.243)" fill="#1e1240"/>
          </g>
        </g>
        <path id="Caminho_186" data-name="Caminho 186" d="M51.216,36.748a3.7,3.7,0,0,1-1.589.321,2.633,2.633,0,0,1-2.759-2.828,2.815,2.815,0,0,1,2.977-2.94,3.353,3.353,0,0,1,1.394.286l-.229.779a2.324,2.324,0,0,0-1.165-.263,1.917,1.917,0,0,0-1.958,2.092,1.9,1.9,0,0,0,1.923,2.072,2.848,2.848,0,0,0,1.234-.275Zm6.12-2.61a2.706,2.706,0,0,1-2.756,2.942,2.635,2.635,0,0,1-2.656-2.851,2.7,2.7,0,0,1,2.748-2.94A2.621,2.621,0,0,1,57.335,34.137Zm-4.394.057c0,1.214.7,2.13,1.683,2.13.962,0,1.683-.9,1.683-2.152,0-.936-.469-2.127-1.66-2.127S52.942,33.144,52.942,34.195ZM58.6,32.915c0-.572-.011-1.042-.046-1.5h.893l.057.916h.023a2.038,2.038,0,0,1,1.832-1.042c.767,0,1.955.458,1.955,2.359v3.306h-1V33.763c0-.893-.332-1.637-1.282-1.637a1.431,1.431,0,0,0-1.351,1.03,1.448,1.448,0,0,0-.069.469v3.329H58.6Zm6.452,4.039V32.183h-.779v-.767h.779v-.3A2.221,2.221,0,0,1,67.471,28.7a2.77,2.77,0,0,1,1.405.366l-.286.767a2.115,2.115,0,0,0-1.165-.321c-1.065,0-1.374.744-1.374,1.626v.275h3.214v5.539h-1V32.183H66.051v4.771Zm5.879-3.81c0-.653-.011-1.214-.046-1.729h.882L71.8,32.5h.046a1.663,1.663,0,0,1,1.534-1.214,1.067,1.067,0,0,1,.283.034v.95a1.487,1.487,0,0,0-.341-.034,1.413,1.413,0,0,0-1.351,1.294A2.8,2.8,0,0,0,71.93,34v2.954h-1Zm3.784-.229c0-.572-.011-1.042-.046-1.5h.882l.046.893h.034a1.91,1.91,0,0,1,1.74-1.019A1.632,1.632,0,0,1,78.94,32.4h.023a2.282,2.282,0,0,1,.618-.721,1.891,1.891,0,0,1,1.225-.389c.733,0,1.82.481,1.82,2.4v3.26h-.985V33.817c0-1.062-.389-1.7-1.2-1.7a1.3,1.3,0,0,0-1.191.916,1.659,1.659,0,0,0-.08.5v3.42h-.982V33.637c0-.882-.389-1.523-1.156-1.523a1.5,1.5,0,0,0-1.328,1.5v3.34h-.985Zm12.605,4.039-.08-.7h-.034a2.054,2.054,0,0,1-1.692.824,1.579,1.579,0,0,1-1.694-1.591c0-1.34,1.191-2.069,3.329-2.058v-.114A1.14,1.14,0,0,0,85.9,32.034a2.761,2.761,0,0,0-1.443.412l-.229-.664a3.439,3.439,0,0,1,1.82-.492c1.692,0,2.1,1.156,2.1,2.267v2.069a7.8,7.8,0,0,0,.092,1.328Zm-.149-2.828c-1.1-.023-2.344.172-2.344,1.248a.892.892,0,0,0,.95.962,1.372,1.372,0,0,0,1.337-.927,1.051,1.051,0,0,0,.057-.321Zm2.6-.982c0-.653-.011-1.214-.046-1.729h.882l.034,1.088h.046a1.663,1.663,0,0,1,1.534-1.214,1.09,1.09,0,0,1,.286.034v.95a1.513,1.513,0,0,0-.343-.034,1.413,1.413,0,0,0-1.351,1.294,2.8,2.8,0,0,0-.046.467v2.954h-1Z" transform="translate(87.281 53.451)" fill="#fff"/>
      </g>
    </g>
  </g>
</svg>
